<svg version="1.1" id="Layer_1" xmlns="http://www.w3.org/2000/svg" x="0px" y="0px"
     width="100%" viewBox="0 0 500 500" enable-background="new 0 0 500 500" xml:space="preserve">
<path fill="#000000" opacity="1.000000" stroke="none"
      d="
M501.000000,198.000000 
	C501.000000,299.333313 501.000000,400.166626 501.000000,500.999939 
	C334.333405,500.999969 167.666794,500.999969 1.000144,501.000000 
	C1.000096,334.333435 1.000096,167.666870 1.000048,1.000233 
	C167.666519,1.000155 334.333038,1.000155 500.999786,1.000078 
	C501.000000,66.500000 501.000000,132.000000 501.000000,198.000000 
M390.000671,382.995514 
	C390.000671,382.995514 390.002472,383.050568 390.606293,382.865997 
	C390.914276,382.578094 391.222260,382.290192 391.760651,381.930542 
	C391.760651,381.930542 392.003723,381.529419 392.451630,381.081757 
	C392.651367,380.722107 392.851074,380.362457 392.996918,380.005402 
	C392.996918,380.005402 393.032745,380.045715 393.647034,379.798126 
	C394.448730,378.541168 395.250427,377.284210 396.002502,375.998474 
	C396.002502,375.998474 396.033752,376.046326 396.678375,375.813904 
	C405.362793,365.023529 409.277496,352.402924 410.933197,337.964172 
	C410.912476,308.298706 410.891724,278.633240 410.968262,248.039215 
	C410.911987,232.330902 410.855743,216.622589 410.903442,199.995377 
	C410.876007,188.374954 410.848572,176.754547 410.964417,164.208786 
	C410.614075,160.165573 410.263763,156.122360 409.992310,151.292587 
	C409.968445,150.503311 409.944611,149.714035 410.043793,148.053528 
	C409.490173,144.326141 409.410400,140.452118 408.309235,136.894196 
	C397.922729,103.334831 371.504150,83.702148 336.154236,83.295631 
	C317.369537,83.079605 298.581024,83.128128 279.794434,83.167664 
	C268.176300,83.192116 256.558594,83.424103 244.169937,83.430939 
	C243.130096,83.477783 242.090256,83.524628 240.160385,83.238770 
	C224.427322,83.353783 208.694275,83.468788 192.235962,83.469444 
	C191.505295,83.514114 190.774643,83.558792 189.244415,83.260452 
	C187.814316,83.359146 186.384216,83.457832 184.331696,83.416100 
	C183.909393,83.450554 183.487091,83.485008 182.378311,83.210274 
	C181.899704,83.316605 181.421082,83.422943 180.228546,83.420395 
	C179.509918,83.463974 178.791275,83.507553 177.493759,83.294701 
	C177.303772,83.386612 177.113800,83.478516 176.008774,83.455223 
	C171.357635,83.498001 166.706482,83.540779 161.521393,83.284126 
	C160.995682,83.510071 160.469955,83.736015 159.307693,84.003731 
	C158.883850,84.031906 158.460022,84.060081 157.185089,83.909561 
	C135.689941,86.355957 118.526535,96.216591 105.320099,114.210518 
	C98.839699,123.093048 94.926888,133.118240 92.580009,143.751480 
	C92.089470,145.974014 92.856827,148.474213 92.989677,151.586533 
	C92.991776,152.081436 92.993866,152.576355 92.204056,153.250351 
	C91.827065,158.239548 91.107132,163.230011 91.125511,168.217743 
	C91.336845,225.574280 91.483406,282.932312 92.106529,340.284973 
	C92.227768,351.443756 96.027756,361.975403 102.977196,371.733917 
	C103.607231,372.529388 104.237267,373.324860 104.984550,374.759979 
	C105.959084,375.866302 106.933609,376.972626 108.026077,378.757965 
	C121.779541,395.039337 138.607452,405.645905 160.498978,405.965210 
	C182.325394,406.283539 204.160736,406.154083 225.990860,406.014740 
	C266.424805,405.756714 306.861389,405.542816 347.287170,404.789642 
	C353.241028,404.678711 359.141693,401.714417 365.774323,400.024384 
	C367.203003,399.374634 368.631653,398.724884 370.772217,397.975586 
	C374.528564,395.328644 378.284912,392.681732 382.519348,389.902527 
	C382.827362,389.717743 382.999603,389.446686 383.701019,389.028290 
	C384.840424,388.054840 385.979858,387.081390 387.653625,385.863495 
	C388.118439,385.252106 388.583221,384.640686 389.003021,383.998291 
	C389.003021,383.998291 389.014923,384.051544 389.533936,383.914551 
	C389.706482,383.615173 389.879028,383.315826 390.000671,382.995514 
z"/>
    <path fill="#3D415D" opacity="1.000000" stroke="none"
          d="
M409.920746,148.924759 
	C409.944611,149.714035 409.968445,150.503311 409.642700,151.959656 
	C409.388245,156.904785 409.483429,161.182846 409.581757,165.812347 
	C409.466339,167.086777 409.347717,168.009796 408.829346,168.845856 
	C407.953094,166.956238 407.255646,165.179230 407.042419,163.345917 
	C406.453949,158.285385 406.744751,153.020981 405.451508,148.166580 
	C403.219086,139.787094 399.882019,131.708588 397.342560,123.401657 
	C395.871368,118.589371 392.776550,115.473999 388.655212,113.050346 
	C387.665527,112.468330 386.472992,112.031960 385.768311,111.195999 
	C379.784729,104.097946 371.785553,100.455879 363.567139,96.513733 
	C355.676239,92.728683 348.009491,90.753113 339.404663,90.941071 
	C327.764557,91.195320 316.114624,91.021873 304.469055,90.989311 
	C301.033325,90.979706 297.597229,90.729385 294.162659,90.757256 
	C285.248016,90.829605 276.334473,91.059891 267.419891,91.103928 
	C259.838867,91.141373 252.247864,91.206993 244.679504,90.861221 
	C241.100479,90.697708 237.564072,89.601181 234.335663,88.678146 
	C238.970337,88.278389 243.293442,88.293823 247.576584,87.887817 
	C249.086182,87.744720 250.498032,86.570381 252.425034,85.832703 
	C259.602203,85.852562 266.308838,85.906609 273.029236,86.346924 
	C275.399963,89.613022 279.312500,89.367958 283.352295,86.067078 
	C284.110413,86.042000 284.544647,86.057587 285.065063,86.392410 
	C287.303986,88.342415 289.508331,90.462845 291.485291,86.051422 
	C295.618134,86.045662 299.294098,86.080582 303.102753,86.466942 
	C307.609497,87.524582 311.969055,88.385750 316.370667,88.797089 
	C317.182770,88.872978 318.164917,87.129082 319.528748,86.167183 
	C325.636841,86.161797 331.284760,86.214355 337.037537,86.613014 
	C340.124939,89.678177 343.068970,90.721375 346.335510,86.754364 
	C350.502502,87.547401 354.232025,88.344238 358.022278,89.404343 
	C358.732178,89.730286 359.381439,89.792953 360.412720,89.885040 
	C385.724365,99.437248 401.841553,116.751450 407.865356,143.041946 
	C408.326447,145.054214 409.225372,146.966171 409.920746,148.924759 
z"/>
    <path fill="#9296B7" opacity="1.000000" stroke="none"
          d="
M336.932648,86.266907 
	C331.284760,86.214355 325.636841,86.161797 319.064270,86.064369 
	C313.083069,86.051498 308.026581,86.083504 302.970062,86.115501 
	C299.294098,86.080582 295.618134,86.045662 291.058929,85.963287 
	C288.443420,85.968277 286.711151,86.020729 284.978882,86.073181 
	C284.544647,86.057587 284.110413,86.042000 282.901733,85.985062 
	C279.090057,85.949364 276.052765,85.955009 273.015503,85.960655 
	C266.308838,85.906609 259.602203,85.852562 252.040344,85.777451 
	C249.457947,85.525757 247.730789,85.295128 245.938507,84.836670 
	C245.562500,84.260193 245.251587,83.911552 244.940689,83.562920 
	C256.558594,83.424103 268.176300,83.192116 279.794434,83.167664 
	C298.581024,83.128128 317.369537,83.079605 336.154236,83.295631 
	C371.504150,83.702148 397.922729,103.334831 408.309235,136.894196 
	C409.410400,140.452118 409.490173,144.326141 409.982269,148.489136 
	C409.225372,146.966171 408.326447,145.054214 407.865356,143.041946 
	C401.841553,116.751450 385.724365,99.437248 360.205109,89.689667 
	C359.064178,89.356941 358.512878,89.249001 357.961578,89.141068 
	C354.232025,88.344238 350.502502,87.547401 345.946472,86.698959 
	C342.390900,86.520538 339.661774,86.393723 336.932648,86.266907 
z"/>
    <path fill="#465689" opacity="1.000000" stroke="none"
          d="
M365.066986,400.070282 
	C359.141693,401.714417 353.241028,404.678711 347.287170,404.789642 
	C306.861389,405.542816 266.424805,405.756714 225.990860,406.014740 
	C204.160736,406.154083 182.325394,406.283539 160.498978,405.965210 
	C138.607452,405.645905 121.779541,395.039337 107.981812,378.405579 
	C107.937546,378.053223 107.968498,378.029755 108.321304,377.980896 
	C110.024300,379.067474 111.363800,380.215851 112.726662,381.335846 
	C117.107430,384.936035 121.496788,388.525757 125.890060,392.101990 
	C125.897278,392.084473 125.914787,392.091034 126.066284,392.368622 
	C127.117897,393.151489 128.018021,393.656799 129.108978,394.381958 
	C129.839981,394.807892 130.380142,395.013947 131.122498,395.486389 
	C140.109238,398.480743 148.731216,402.325500 157.722351,403.634491 
	C167.453186,405.051239 177.528427,404.167999 187.453491,404.169464 
	C202.968307,404.171753 218.483124,404.074432 234.367981,404.054382 
	C235.480942,404.085907 236.223831,404.082336 237.317322,404.293671 
	C248.114487,404.508209 258.561066,404.507843 269.376892,404.581909 
	C270.493530,404.612823 271.240875,404.569244 272.436523,404.634949 
	C276.257782,404.655273 279.630737,404.566315 283.437836,404.563293 
	C287.907593,404.448395 291.943207,404.247559 296.236694,404.065369 
	C296.665344,404.060822 296.836121,404.037567 297.464996,404.056641 
	C301.601105,404.104889 305.279144,404.110779 309.137787,404.275085 
	C309.895386,404.332458 310.472412,404.231445 311.514343,404.151306 
	C318.324738,404.139191 324.670227,404.106201 331.426208,404.105713 
	C333.922974,403.938202 336.009277,403.738129 338.454468,403.546326 
	C339.530609,403.542328 340.247864,403.529999 341.310944,403.669006 
	C346.786194,402.931763 351.915649,402.043152 357.416138,401.129303 
	C359.186920,400.697968 360.586670,400.291901 362.366760,399.903809 
	C363.504425,399.958405 364.261719,399.995056 365.034180,400.037140 
	C365.049347,400.042572 365.066986,400.070282 365.066986,400.070282 
z"/>
    <path fill="#465689" opacity="1.000000" stroke="none"
          d="
M102.883842,371.110992 
	C96.027756,361.975403 92.227768,351.443756 92.106529,340.284973 
	C91.483406,282.932312 91.336845,225.574280 91.125511,168.217743 
	C91.107132,163.230011 91.827065,158.239548 92.577087,153.595856 
	C93.069962,155.976532 93.189819,158.011719 93.247772,160.507309 
	C93.262390,166.339035 93.338905,171.710358 93.352928,177.524597 
	C93.329292,180.951065 93.368156,183.934616 93.320908,187.274460 
	C93.285919,188.113602 93.337036,188.596451 93.330582,189.432877 
	C93.303238,190.499634 93.333473,191.212814 93.270164,192.377319 
	C93.227852,200.908691 93.279083,208.988708 93.267685,217.502151 
	C93.250862,220.270523 93.296677,222.605469 93.255020,225.405090 
	C93.131569,260.355133 93.199791,294.841095 93.006386,329.325592 
	C92.932938,342.420471 95.527260,354.745270 101.603531,366.355896 
	C102.339035,367.761292 102.554619,369.438782 102.979347,371.020386 
	C102.947533,371.050598 102.883842,371.110992 102.883842,371.110992 
z"/>
    <path fill="#767C96" opacity="1.000000" stroke="none"
          d="
M410.870972,248.967789 
	C410.891724,278.633240 410.912476,308.298706 410.684814,338.270020 
	C410.055389,338.002686 409.674377,337.429535 409.278687,336.471191 
	C409.204407,335.057037 409.144745,334.028046 409.143616,332.564453 
	C409.165985,330.086914 409.129883,328.043976 409.151550,325.542908 
	C409.167450,321.391449 409.125519,317.698090 409.136108,313.630371 
	C409.148071,312.502869 409.107513,311.749725 409.130676,310.571991 
	C409.203278,308.431396 409.212219,306.715454 409.435059,304.687195 
	C409.482971,301.917267 409.316986,299.459625 409.161987,296.573181 
	C409.126007,294.430206 409.079071,292.716003 409.089142,290.546265 
	C409.089142,286.726166 409.032104,283.361603 409.017303,279.532715 
	C409.015869,274.382172 408.972198,269.696045 409.001495,264.546753 
	C409.218658,259.039154 409.362885,253.994720 409.734680,248.941879 
	C409.962250,248.933472 410.415741,248.973602 410.415741,248.973602 
	C410.415741,248.973602 410.870972,248.967789 410.870972,248.967789 
z"/>
    <path fill="#282B43" opacity="1.000000" stroke="none"
          d="
M93.309677,160.046890 
	C93.189819,158.011719 93.069962,155.976532 92.973038,153.506317 
	C92.993866,152.576355 92.991776,152.081436 93.184464,150.887894 
	C94.919388,144.126373 96.459518,138.063507 98.270905,132.088287 
	C101.333809,131.489731 101.480324,129.991531 99.914436,127.713264 
	C99.987953,127.481430 100.201004,127.044144 100.547112,127.013428 
	C102.144104,124.903877 103.394989,122.825050 104.641998,120.714874 
	C104.638130,120.683525 104.672791,120.630692 105.058327,120.705505 
	C107.305702,119.169456 109.810196,117.905121 110.902489,115.879333 
	C113.604538,110.868095 117.909866,108.512955 122.865196,107.283081 
	C122.492020,108.384216 122.246765,109.192162 121.707550,110.162170 
	C117.893692,113.764465 114.325768,117.157135 110.863037,120.653976 
	C100.901573,130.713562 95.693474,142.737381 96.014267,157.382172 
	C96.007507,158.503326 96.003296,159.250748 95.661118,160.000183 
	C94.652000,160.017090 93.980835,160.031998 93.309677,160.046890 
z"/>
    <path fill="#9296B7" opacity="1.000000" stroke="none"
          d="
M105.913139,113.865044 
	C118.526535,96.216591 135.689941,86.355957 157.557999,84.283150 
	C157.943069,84.849060 157.955246,85.041389 157.681030,85.449814 
	C155.250900,86.156425 153.107132,86.646935 150.570053,87.137184 
	C148.259247,87.553802 146.206543,87.667824 144.452606,88.450981 
	C140.864792,90.052986 137.437515,92.014511 133.579391,93.904877 
	C130.448746,95.345024 127.253235,96.212692 124.999313,98.166573 
	C118.798508,103.541916 112.992393,109.372559 106.788925,114.889969 
	C106.336197,114.459595 106.124664,114.162315 105.913139,113.865044 
z"/>
    <path fill="#1D243D" opacity="1.000000" stroke="none"
          d="
M392.003723,381.529419 
	C392.003723,381.529419 391.760651,381.930542 391.306885,382.009521 
	C390.569550,382.409210 390.286011,382.729889 390.002472,383.050568 
	C390.002472,383.050568 390.000671,382.995514 389.743347,383.038818 
	C389.328979,383.405243 389.171967,383.728394 389.014954,384.051544 
	C389.014923,384.051544 389.003021,383.998291 388.687012,383.948425 
	C387.912811,383.932587 387.454620,383.966583 386.790588,383.785797 
	C387.056519,382.047333 387.528259,380.523682 388.256897,378.783875 
	C389.677490,376.380096 390.841217,374.192505 392.359070,371.950867 
	C399.395538,366.981110 401.378387,359.697937 402.856110,352.093903 
	C403.075500,350.965057 404.258118,350.023376 405.005280,349.344330 
	C405.344208,350.795807 405.672974,351.898041 405.950745,353.372009 
	C403.135986,359.686920 400.345947,365.618134 397.627441,371.581970 
	C396.974426,373.014557 396.558655,374.555328 396.033752,376.046326 
	C396.033752,376.046326 396.002502,375.998474 395.657104,375.979401 
	C394.552063,377.322144 393.792419,378.683929 393.032776,380.045715 
	C393.032745,380.045715 392.996918,380.005402 392.705017,380.127350 
	C392.276672,380.675995 392.140198,381.102722 392.003723,381.529419 
z"/>
    <path fill="#CADCFA" opacity="1.000000" stroke="none"
          d="
M157.967407,85.233727 
	C157.955246,85.041389 157.943069,84.849060 157.983551,84.372498 
	C158.460022,84.060081 158.883850,84.031906 159.904236,84.054596 
	C161.018967,83.931488 161.537155,83.757523 162.055344,83.583557 
	C166.706482,83.540779 171.357635,83.498001 176.565247,83.682663 
	C177.438690,83.790436 177.755676,83.670784 178.072647,83.551132 
	C178.791275,83.507553 179.509918,83.463974 180.748230,83.665604 
	C181.866882,83.780373 182.465836,83.649918 183.064789,83.519470 
	C183.487091,83.485008 183.909393,83.450554 184.909134,83.690422 
	C187.005707,83.844322 188.524841,83.723892 190.043976,83.603462 
	C190.774643,83.558792 191.505295,83.514114 192.957916,83.734215 
	C204.398590,84.052979 215.117584,84.175690 225.835892,84.130875 
	C230.908096,84.109665 235.978943,83.767960 241.050415,83.571465 
	C242.090256,83.524628 243.130096,83.477783 244.555313,83.496933 
	C245.251587,83.911552 245.562500,84.260193 245.469727,84.837830 
	C216.033188,85.122459 187.000290,85.178093 157.967407,85.233727 
z"/>
    <path fill="#9296B7" opacity="1.000000" stroke="none"
          d="
M410.919617,248.503510 
	C410.870972,248.967789 410.415741,248.973602 410.415741,248.973602 
	C410.415741,248.973602 409.962250,248.933472 409.681458,248.477905 
	C409.354218,232.667191 409.307800,217.312027 409.463898,201.798798 
	C409.867889,201.360672 410.069366,201.080612 410.408447,200.803711 
	C410.546021,200.806870 410.799500,200.914276 410.799500,200.914276 
	C410.855743,216.622589 410.911987,232.330902 410.919617,248.503510 
z"/>
    <path fill="#767C96" opacity="1.000000" stroke="none"
          d="
M105.616623,114.037781 
	C106.124664,114.162315 106.336197,114.459595 106.659897,115.213333 
	C106.072311,117.323425 105.372551,118.977058 104.672791,120.630692 
	C104.672791,120.630692 104.638130,120.683525 104.333878,120.794769 
	C102.753418,122.952065 101.477203,124.998100 100.201004,127.044144 
	C100.201004,127.044144 99.987953,127.481430 99.675415,127.927094 
	C98.908470,129.582047 98.454063,130.791336 97.999649,132.000626 
	C96.459518,138.063507 94.919388,144.126373 93.211884,150.517853 
	C92.856827,148.474213 92.089470,145.974014 92.580009,143.751480 
	C94.926888,133.118240 98.839699,123.093048 105.616623,114.037781 
z"/>
    <path fill="#515474" opacity="1.000000" stroke="none"
          d="
M396.356079,375.930115 
	C396.558655,374.555328 396.974426,373.014557 397.627441,371.581970 
	C400.345947,365.618134 403.135986,359.686920 406.195435,353.094818 
	C406.918518,349.958588 407.345947,347.471313 407.841858,344.619690 
	C407.969849,343.518280 408.029419,342.781250 408.313354,341.739166 
	C408.789581,339.908234 409.041443,338.382294 409.293335,336.856384 
	C409.674377,337.429535 410.055389,338.002686 410.642883,338.729553 
	C409.277496,352.402924 405.362793,365.023529 396.356079,375.930115 
z"/>
    <path fill="#A7C8F9" opacity="1.000000" stroke="none"
          d="
M410.851471,200.454834 
	C410.799500,200.914276 410.546021,200.806870 410.390442,200.455399 
	C410.041748,198.757050 409.848633,197.410172 409.643402,195.592056 
	C409.497223,186.391479 409.363190,177.662140 409.229126,168.932800 
	C409.347717,168.009796 409.466339,167.086777 409.791504,165.770798 
	C410.261810,165.260834 410.536163,165.179596 410.821136,165.134125 
	C410.848572,176.754547 410.876007,188.374954 410.851471,200.454834 
z"/>
    <path fill="#9296B7" opacity="1.000000" stroke="none"
          d="
M240.605408,83.405113 
	C235.978943,83.767960 230.908096,84.109665 225.835892,84.130875 
	C215.117584,84.175690 204.398590,84.052979 193.320541,83.791397 
	C208.694275,83.468788 224.427322,83.353783 240.605408,83.405113 
z"/>
    <path fill="#465689" opacity="1.000000" stroke="none"
          d="
M382.041260,390.034821 
	C378.284912,392.681732 374.528564,395.328644 370.407959,398.014587 
	C370.043671,398.053619 370.027496,398.033600 370.041382,397.697327 
	C371.735565,395.945007 373.415894,394.528992 375.090515,393.123718 
	C375.084839,393.134460 375.113281,393.137573 375.429321,393.089417 
	C376.543304,392.374725 377.341187,391.708160 378.363770,390.879730 
	C379.050262,390.426056 379.512054,390.134308 380.317261,389.872864 
	C381.116638,389.945862 381.572632,389.988556 382.018799,390.020538 
	C382.008972,390.009857 382.041260,390.034821 382.041260,390.034821 
z"/>
    <path fill="#767C96" opacity="1.000000" stroke="none"
          d="
M410.892761,164.671448 
	C410.536163,165.179596 410.261810,165.260834 409.788330,165.419373 
	C409.483429,161.182846 409.388245,156.904785 409.603241,152.352936 
	C410.263763,156.122360 410.614075,160.165573 410.892761,164.671448 
z"/>
    <path fill="#465689" opacity="1.000000" stroke="none"
          d="
M107.922836,378.066101 
	C106.933609,376.972626 105.959084,375.866302 105.008110,374.365082 
	C105.031670,373.970184 105.195778,373.819702 105.530167,373.878906 
	C106.565865,375.301971 107.267181,376.665863 107.968498,378.029755 
	C107.968498,378.029755 107.937546,378.053223 107.922836,378.066101 
z"/>
    <path fill="#515474" opacity="1.000000" stroke="none"
          d="
M393.339905,379.921936 
	C393.792419,378.683929 394.552063,377.322144 395.681915,375.993774 
	C395.250427,377.284210 394.448730,378.541168 393.339905,379.921936 
z"/>
    <path fill="#465689" opacity="1.000000" stroke="none"
          d="
M370.052002,398.064392 
	C368.631653,398.724884 367.203003,399.374634 365.420654,400.047333 
	C365.066986,400.070282 365.049347,400.042572 365.168915,399.700195 
	C366.868134,398.916412 368.447815,398.475006 370.027496,398.033569 
	C370.027496,398.033600 370.043671,398.053619 370.052002,398.064392 
z"/>
    <path fill="#515474" opacity="1.000000" stroke="none"
          d="
M387.119263,386.107941 
	C385.979858,387.081390 384.840424,388.054840 383.352173,388.817902 
	C383.003357,388.607513 382.992218,388.127136 383.223572,387.940063 
	C383.945923,387.159180 384.436920,386.565430 385.261414,385.916138 
	C386.037292,385.881226 386.479675,385.901855 386.971130,385.969177 
	C387.020142,386.015808 387.119263,386.107941 387.119263,386.107941 
z"/>
    <path fill="#465689" opacity="1.000000" stroke="none"
          d="
M104.949486,374.045258 
	C104.237267,373.324860 103.607231,372.529388 102.930519,371.422455 
	C102.883842,371.110992 102.947533,371.050598 103.326340,371.021423 
	C104.202019,371.934723 104.698898,372.877228 105.195778,373.819702 
	C105.195778,373.819702 105.031670,373.970184 104.949486,374.045258 
z"/>
    <path fill="#9296B7" opacity="1.000000" stroke="none"
          d="
M189.644196,83.431961 
	C188.524841,83.723892 187.005707,83.844322 185.220337,83.760635 
	C186.384216,83.457832 187.814316,83.359146 189.644196,83.431961 
z"/>
    <path fill="#515474" opacity="1.000000" stroke="none"
          d="
M386.996399,384.000580 
	C387.454620,383.966583 387.912811,383.932587 388.709534,383.963928 
	C388.583221,384.640686 388.118439,385.252106 387.386444,385.985718 
	C387.119263,386.107941 387.020142,386.015808 386.914154,385.653625 
	C386.870911,384.861145 386.933655,384.430847 386.996399,384.000580 
z"/>
    <path fill="#9296B7" opacity="1.000000" stroke="none"
          d="
M161.788361,83.433838 
	C161.537155,83.757523 161.018967,83.931488 160.222504,84.033707 
	C160.469955,83.736015 160.995682,83.510071 161.788361,83.433838 
z"/>
    <path fill="#9296B7" opacity="1.000000" stroke="none"
          d="
M182.721558,83.364868 
	C182.465836,83.649918 181.866882,83.780373 181.105194,83.720047 
	C181.421082,83.422943 181.899704,83.316605 182.721558,83.364868 
z"/>
    <path fill="#465689" opacity="1.000000" stroke="none"
          d="
M382.992188,388.127136 
	C382.992218,388.127136 383.003357,388.607513 383.019745,388.848419 
	C382.999603,389.446686 382.827362,389.717743 382.280304,389.968689 
	C382.041260,390.034821 382.008972,390.009857 382.002869,389.733612 
	C382.328583,389.013947 382.660400,388.570526 382.992188,388.127136 
z"/>
    <path fill="#9296B7" opacity="1.000000" stroke="none"
          d="
M177.783203,83.422913 
	C177.755676,83.670784 177.438690,83.790436 177.022766,83.740257 
	C177.113800,83.478516 177.303772,83.386612 177.783203,83.422913 
z"/>
    <path fill="#515474" opacity="1.000000" stroke="none"
          d="
M392.227661,381.305603 
	C392.140198,381.102722 392.276672,380.675995 392.731964,380.126038 
	C392.851074,380.362457 392.651367,380.722107 392.227661,381.305603 
z"/>
    <path fill="#515474" opacity="1.000000" stroke="none"
          d="
M390.304382,382.958282 
	C390.286011,382.729889 390.569550,382.409210 391.191650,382.045410 
	C391.222260,382.290192 390.914276,382.578094 390.304382,382.958282 
z"/>
    <path fill="#515474" opacity="1.000000" stroke="none"
          d="
M389.274445,383.983032 
	C389.171967,383.728394 389.328979,383.405243 389.768799,383.049286 
	C389.879028,383.315826 389.706482,383.615173 389.274445,383.983032 
z"/>
    <path fill="#343752" opacity="1.000000" stroke="none"
          d="
M408.829346,168.845856 
	C409.363190,177.662140 409.497223,186.391479 409.255066,195.710846 
	C409.006348,198.186203 409.133881,200.071533 409.261414,201.956879 
	C409.307800,217.312027 409.354218,232.667191 409.453888,248.486313 
	C409.362885,253.994720 409.218658,259.039154 408.632721,264.412720 
	C407.795715,263.547516 407.111053,262.368011 407.049286,261.156677 
	C406.312683,246.718567 405.445984,232.281540 405.067841,217.832352 
	C404.738129,205.231064 404.986603,192.614670 404.985779,179.551849 
	C404.351624,175.069092 403.323029,171.056107 403.148834,167.006393 
	C402.741028,157.526352 401.631134,148.358261 399.481506,138.949203 
	C396.320526,125.113441 387.903748,115.994255 377.698730,108.205940 
	C371.317566,103.335945 363.292206,100.502441 355.775269,97.292091 
	C352.400177,95.850647 348.489990,95.354004 344.775635,95.090195 
	C339.696442,94.729454 334.572479,94.999023 329.467712,94.998955 
	C313.461853,94.998741 297.455963,94.998009 281.450104,94.998940 
	C267.966614,94.999725 254.483154,95.002541 240.624817,95.002869 
	C239.500259,95.003525 238.750565,95.005783 237.534683,95.004890 
	C232.378647,95.004005 227.688782,95.006271 222.571640,95.005417 
	C219.763153,95.327240 217.381927,95.652184 214.669739,95.984543 
	C213.897324,95.984787 213.455887,95.977615 213.012543,95.726959 
	C213.010666,95.483475 213.003769,94.996536 212.916534,94.669708 
	C211.181732,92.382751 209.898590,92.582626 208.520142,94.990204 
	C198.054657,94.331291 188.055862,93.138992 178.059784,93.161194 
	C167.499344,93.184639 156.802261,93.541687 146.425537,95.295387 
	C137.765594,96.758934 129.539917,100.564087 122.994095,106.994476 
	C122.997879,106.999092 122.993118,106.989899 122.993118,106.989899 
	C117.909866,108.512955 113.604538,110.868095 110.902489,115.879333 
	C109.810196,117.905121 107.305702,119.169456 105.058327,120.705505 
	C105.372551,118.977058 106.072311,117.323425 106.901100,115.346428 
	C112.992393,109.372559 118.798508,103.541916 124.999313,98.166573 
	C127.253235,96.212692 130.448746,95.345024 133.650208,94.227280 
	C135.380417,94.293427 136.726959,94.276367 137.953705,93.884422 
	C138.974167,93.558380 139.815186,92.380806 140.802277,92.287926 
	C146.650787,91.737549 152.551651,91.643143 158.366364,90.875816 
	C161.321396,90.485870 164.133026,89.009132 167.341766,88.019836 
	C168.117126,88.015350 168.560196,88.014709 169.296936,88.264862 
	C178.061005,88.673630 186.531403,88.831596 195.438873,88.988258 
	C197.915390,88.981071 199.954865,88.975197 202.226105,89.206573 
	C203.642075,89.275253 204.826233,89.106674 206.408112,88.939850 
	C207.866364,88.938385 208.926880,88.935173 210.267975,89.192200 
	C212.705368,88.984589 214.862167,88.516731 217.345520,88.046616 
	C218.107437,88.048683 218.542816,88.053017 219.099152,88.408989 
	C223.134201,89.821030 227.016418,93.126175 231.380371,88.932144 
	C232.506500,88.933334 233.257431,88.930359 234.008362,88.927383 
	C237.564072,89.601181 241.100479,90.697708 244.679504,90.861221 
	C252.247864,91.206993 259.838867,91.141373 267.419891,91.103928 
	C276.334473,91.059891 285.248016,90.829605 294.162659,90.757256 
	C297.597229,90.729385 301.033325,90.979706 304.469055,90.989311 
	C316.114624,91.021873 327.764557,91.195320 339.404663,90.941071 
	C348.009491,90.753113 355.676239,92.728683 363.567139,96.513733 
	C371.785553,100.455879 379.784729,104.097946 385.768311,111.195999 
	C386.472992,112.031960 387.665527,112.468330 388.655212,113.050346 
	C392.776550,115.473999 395.871368,118.589371 397.342560,123.401657 
	C399.882019,131.708588 403.219086,139.787094 405.451508,148.166580 
	C406.744751,153.020981 406.453949,158.285385 407.042419,163.345917 
	C407.255646,165.179230 407.953094,166.956238 408.829346,168.845856 
z"/>
    <path fill="#515474" opacity="1.000000" stroke="none"
          d="
M234.335663,88.678146 
	C233.257431,88.930359 232.506500,88.933334 231.055038,88.686905 
	C226.562393,88.310783 222.770294,88.184059 218.978180,88.057343 
	C218.542816,88.053017 218.107437,88.048683 216.928833,88.025032 
	C214.119522,88.314453 212.053467,88.623199 209.987411,88.931961 
	C208.926880,88.935173 207.866364,88.938385 206.169403,88.719429 
	C204.353409,88.654617 203.173874,88.811966 201.994324,88.969322 
	C199.954865,88.975197 197.915390,88.981071 195.116486,88.726425 
	C186.639694,87.987495 178.923874,87.479813 171.202484,87.079285 
	C170.487488,87.042206 169.737183,87.686272 169.003265,88.014069 
	C168.560196,88.014709 168.117126,88.015350 166.884933,88.004021 
	C162.551895,88.281891 159.007584,88.773529 155.464279,88.766205 
	C153.962875,88.763107 152.463608,87.712151 150.963379,87.137444 
	C153.107132,86.646935 155.250900,86.156425 157.681030,85.449814 
	C187.000290,85.178093 216.033188,85.122459 245.534851,85.065666 
	C247.730789,85.295128 249.457947,85.525757 251.569824,85.811630 
	C250.498032,86.570381 249.086182,87.744720 247.576584,87.887817 
	C243.293442,88.293823 238.970337,88.278389 234.335663,88.678146 
z"/>
    <path fill="#515474" opacity="1.000000" stroke="none"
          d="
M303.102753,86.466942 
	C308.026581,86.083504 313.083069,86.051498 318.604065,86.122314 
	C318.164917,87.129082 317.182770,88.872978 316.370667,88.797089 
	C311.969055,88.385750 307.609497,87.524582 303.102753,86.466942 
z"/>
    <path fill="#515474" opacity="1.000000" stroke="none"
          d="
M273.029236,86.346924 
	C276.052765,85.955009 279.090057,85.949364 282.577881,86.025726 
	C279.312500,89.367958 275.399963,89.613022 273.029236,86.346924 
z"/>
    <path fill="#515474" opacity="1.000000" stroke="none"
          d="
M337.037537,86.613014 
	C339.661774,86.393723 342.390900,86.520538 345.509064,86.702759 
	C343.068970,90.721375 340.124939,89.678177 337.037537,86.613014 
z"/>
    <path fill="#515474" opacity="1.000000" stroke="none"
          d="
M285.065063,86.392410 
	C286.711151,86.020729 288.443420,85.968277 290.602051,86.003975 
	C289.508331,90.462845 287.303986,88.342415 285.065063,86.392410 
z"/>
    <path fill="#515474" opacity="1.000000" stroke="none"
          d="
M358.022278,89.404343 
	C358.512878,89.249001 359.064178,89.356941 359.823059,89.660248 
	C359.381439,89.792953 358.732178,89.730286 358.022278,89.404343 
z"/>
    <path fill="#1D243D" opacity="1.000000" stroke="none"
          d="
M105.530167,373.878906 
	C104.698898,372.877228 104.202019,371.934723 103.358154,370.991211 
	C102.554619,369.438782 102.339035,367.761292 101.603531,366.355896 
	C95.527260,354.745270 92.932938,342.420471 93.006386,329.325592 
	C93.199791,294.841095 93.131569,260.355133 93.627182,225.461609 
	C94.721199,226.560760 95.833412,228.046478 95.902672,229.579315 
	C96.134453,234.709717 95.993423,239.856979 95.993889,245.414841 
	C95.993668,247.221924 95.994720,248.611938 95.992828,250.470413 
	C95.659363,271.291168 94.380943,291.689240 95.360886,311.978241 
	C95.930649,323.774689 92.835190,336.180634 98.813362,347.533264 
	C99.164757,348.200531 98.913483,349.172211 98.993439,349.997284 
	C99.944908,359.815125 104.219788,368.122314 110.852707,375.225311 
	C112.113365,376.575317 114.249825,377.107452 115.994560,378.381622 
	C118.309479,381.813934 120.622368,384.873871 122.909851,387.952728 
	C123.927246,389.322052 124.893417,390.729401 125.882843,392.119507 
	C121.496788,388.525757 117.107430,384.936035 112.726662,381.335846 
	C111.363800,380.215851 110.024300,379.067474 108.321304,377.980896 
	C107.267181,376.665863 106.565865,375.301971 105.530167,373.878906 
z"/>
    <path fill="#14192C" opacity="1.000000" stroke="none"
          d="
M125.890060,392.101990 
	C124.893417,390.729401 123.927246,389.322052 122.909851,387.952728 
	C120.622368,384.873871 118.309479,381.813934 116.001511,378.375031 
	C115.996109,378.003784 116.002441,377.997559 116.361115,378.013672 
	C117.775253,378.933533 118.823692,379.845642 119.887787,380.739105 
	C121.586670,382.165527 123.296005,383.579529 125.244934,385.239716 
	C128.084671,386.915588 131.136429,387.881714 133.187347,389.876740 
	C138.518082,395.062134 145.012436,396.651428 152.005051,396.963501 
	C158.051315,397.233276 164.112305,397.227814 170.167023,397.242493 
	C183.419388,397.274628 196.675537,397.057312 209.922806,397.316345 
	C216.290802,397.440887 222.642166,398.414978 229.001068,399.378113 
	C228.999481,400.499207 228.997910,401.246552 228.664093,401.994232 
	C227.888855,401.994110 227.445847,401.993652 226.874191,401.617554 
	C219.163101,401.164246 211.580673,401.086578 203.544708,401.008118 
	C198.473999,401.340210 193.842514,402.085297 189.242477,401.925415 
	C177.409332,401.514130 165.567245,400.962219 153.776230,399.925995 
	C148.819321,399.490356 143.997879,397.620422 139.084335,396.541595 
	C136.395874,395.951324 133.643738,395.651062 130.920319,395.220032 
	C130.380142,395.013947 129.839981,394.807892 129.062302,394.029236 
	C127.854797,393.001434 126.884796,392.546234 125.914787,392.091034 
	C125.914787,392.091034 125.897278,392.084473 125.890060,392.101990 
z"/>
    <path fill="#14192C" opacity="1.000000" stroke="none"
          d="
M340.965118,403.517670 
	C340.247864,403.529999 339.530609,403.542328 338.261353,403.186157 
	C335.478760,402.217102 333.248169,401.616486 330.547852,401.011597 
	C317.973450,401.333557 305.869537,401.876099 293.763947,401.915283 
	C284.653870,401.944763 275.544006,401.195648 266.429810,401.036713 
	C256.954041,400.871460 247.471298,401.094879 237.996338,400.908630 
	C236.318710,400.875641 234.664139,399.668793 233.322678,398.743713 
	C235.451233,398.322205 237.258865,397.995056 239.060410,398.025635 
	C256.162720,398.315765 273.263336,398.709381 290.366089,398.964142 
	C293.808899,399.015472 297.258972,398.436768 300.705078,398.444122 
	C308.095642,398.459900 315.505920,399.072479 322.871521,398.705841 
	C334.598755,398.122070 346.296112,396.938477 357.936890,396.327362 
	C357.245544,397.764832 356.623383,398.883484 355.667908,400.003479 
	C354.890137,400.006287 354.445709,400.007782 353.690033,399.753143 
	C349.378296,399.387207 344.859650,396.922028 341.758423,402.198608 
	C341.332703,402.770691 341.148895,403.144165 340.965118,403.517670 
z"/>
    <path fill="#1D243D" opacity="1.000000" stroke="none"
          d="
M227.002853,401.993225 
	C227.445847,401.993652 227.888855,401.994110 229.054321,401.997742 
	C231.183838,402.673737 232.590881,403.346527 233.997940,404.019287 
	C218.483124,404.074432 202.968307,404.171753 187.453491,404.169464 
	C177.528427,404.167999 167.453186,405.051239 157.722351,403.634491 
	C148.731216,402.325500 140.109238,398.480743 131.122498,395.486389 
	C133.643738,395.651062 136.395874,395.951324 139.084335,396.541595 
	C143.997879,397.620422 148.819321,399.490356 153.776230,399.925995 
	C165.567245,400.962219 177.409332,401.514130 189.242477,401.925415 
	C193.842514,402.085297 198.473999,401.340210 203.869858,401.265808 
	C212.099991,401.680573 219.551422,401.836914 227.002853,401.993225 
z"/>
    <path fill="#171C33" opacity="1.000000" stroke="none"
          d="
M234.367981,404.054382 
	C232.590881,403.346527 231.183838,402.673737 229.386566,401.997437 
	C228.997910,401.246552 228.999481,400.499207 229.400833,399.377258 
	C230.866714,399.003143 231.932816,399.003571 232.998932,399.004028 
	C234.664139,399.668793 236.318710,400.875641 237.996338,400.908630 
	C247.471298,401.094879 256.954041,400.871460 266.429810,401.036713 
	C275.544006,401.195648 284.653870,401.944763 293.763947,401.915283 
	C305.869537,401.876099 317.973450,401.333557 330.544006,401.392822 
	C331.011871,402.543274 331.013763,403.308228 331.015686,404.073181 
	C324.670227,404.106201 318.324738,404.139191 311.350220,403.935699 
	C310.133179,403.838348 309.545197,403.977509 308.957184,404.116669 
	C305.279144,404.110779 301.601105,404.104889 297.357727,403.924927 
	C296.521210,403.849426 296.250000,403.948059 295.978821,404.046692 
	C291.943207,404.247559 287.907593,404.448395 283.257996,404.263550 
	C279.092072,404.093811 275.540161,404.309723 271.988251,404.525665 
	C271.240875,404.569244 270.493530,404.612823 269.194397,404.271881 
	C259.638489,403.592712 250.635544,403.240570 241.629150,403.058502 
	C240.082520,403.027222 238.521240,403.720306 236.966736,404.078766 
	C236.223831,404.082336 235.480942,404.085907 234.367981,404.054382 
z"/>
    <path fill="#171C33" opacity="1.000000" stroke="none"
          d="
M356.001221,400.002167 
	C356.623383,398.883484 357.245544,397.764832 358.310852,396.325562 
	C359.502289,396.002930 360.250519,396.000854 361.351318,395.948730 
	C365.470825,393.267212 369.237823,390.635742 373.336914,388.003235 
	C374.111938,388.000214 374.554810,387.998291 375.317993,387.997803 
	C376.424316,387.331970 377.210327,386.664764 378.199219,385.869537 
	C378.656158,385.537811 378.854919,385.289825 379.359070,384.982971 
	C381.419281,383.337402 383.029327,381.594940 384.859161,380.126282 
	C385.679169,379.468109 386.939514,379.358521 388.000031,379.000000 
	C387.528259,380.523682 387.056519,382.047333 386.790588,383.785797 
	C386.933655,384.430847 386.870911,384.861145 386.865112,385.606964 
	C386.479675,385.901855 386.037292,385.881226 384.883667,385.926086 
	C381.489349,385.875763 379.911072,386.964569 379.973877,389.842560 
	C379.512054,390.134308 379.050262,390.426056 377.999115,390.877380 
	C376.644287,391.737122 375.878784,392.437347 375.113281,393.137573 
	C375.113281,393.137573 375.084839,393.134460 374.700562,393.100525 
	C370.206299,395.339691 366.096344,397.612793 361.986389,399.885864 
	C360.586670,400.291901 359.186920,400.697968 357.288574,400.897003 
	C356.527008,400.460693 356.264130,400.231445 356.001221,400.002167 
z"/>
    <path fill="#1D243D" opacity="1.000000" stroke="none"
          d="
M237.317322,404.293671 
	C238.521240,403.720306 240.082520,403.027222 241.629150,403.058502 
	C250.635544,403.240570 259.638489,403.592712 268.825134,404.197388 
	C258.561066,404.507843 248.114487,404.508209 237.317322,404.293671 
z"/>
    <path fill="#1D243D" opacity="1.000000" stroke="none"
          d="
M355.667908,400.003479 
	C356.264130,400.231445 356.527008,400.460693 356.917480,400.922272 
	C351.915649,402.043152 346.786194,402.931763 341.310944,403.669006 
	C341.148895,403.144165 341.332703,402.770691 342.178070,402.196167 
	C346.560181,401.333160 350.280731,400.671204 354.001282,400.009277 
	C354.445709,400.007782 354.890137,400.006287 355.667908,400.003479 
z"/>
    <path fill="#1D243D" opacity="1.000000" stroke="none"
          d="
M362.366760,399.903809 
	C366.096344,397.612793 370.206299,395.339691 374.706238,393.089783 
	C373.415894,394.528992 371.735565,395.945007 370.041382,397.697296 
	C368.447815,398.475006 366.868134,398.916412 365.153748,399.694763 
	C364.261719,399.995056 363.504425,399.958405 362.366760,399.903809 
z"/>
    <path fill="#1D243D" opacity="1.000000" stroke="none"
          d="
M272.436523,404.634949 
	C275.540161,404.309723 279.092072,404.093811 282.823853,404.177612 
	C279.630737,404.566315 276.257782,404.655273 272.436523,404.634949 
z"/>
    <path fill="#1D243D" opacity="1.000000" stroke="none"
          d="
M331.426208,404.105713 
	C331.013763,403.308228 331.011871,402.543274 331.013763,401.397095 
	C333.248169,401.616486 335.478760,402.217102 337.902466,403.177856 
	C336.009277,403.738129 333.922974,403.938202 331.426208,404.105713 
z"/>
    <path fill="#1D243D" opacity="1.000000" stroke="none"
          d="
M126.066284,392.368622 
	C126.884796,392.546234 127.854797,393.001434 128.871460,393.809387 
	C128.018021,393.656799 127.117897,393.151489 126.066284,392.368622 
z"/>
    <path fill="#1D243D" opacity="1.000000" stroke="none"
          d="
M309.137787,404.275085 
	C309.545197,403.977509 310.133179,403.838348 310.885315,403.914795 
	C310.472412,404.231445 309.895386,404.332458 309.137787,404.275085 
z"/>
    <path fill="#14192C" opacity="1.000000" stroke="none"
          d="
M296.236694,404.065369 
	C296.250000,403.948059 296.521210,403.849426 296.899658,403.882568 
	C296.836121,404.037567 296.665344,404.060822 296.236694,404.065369 
z"/>
    <path fill="#14192C" opacity="1.000000" stroke="none"
          d="
M95.995163,244.997772 
	C95.993423,239.856979 96.134453,234.709717 95.902672,229.579315 
	C95.833412,228.046478 94.721199,226.560760 93.714661,224.996948 
	C93.296677,222.605469 93.250862,220.270523 93.636047,217.442383 
	C94.695877,216.120392 95.849976,215.304153 95.870155,214.460800 
	C96.026848,207.910095 96.073265,201.350540 95.854172,194.803741 
	C95.821175,193.817810 94.232681,192.883942 93.363716,191.925995 
	C93.333473,191.212814 93.303238,190.499634 93.613312,189.400269 
	C94.434601,188.666611 94.915588,188.319138 95.396576,187.971664 
	C94.733398,187.620499 94.070206,187.269333 93.407021,186.918167 
	C93.368156,183.934616 93.329292,180.951065 93.716064,177.459503 
	C94.762558,173.301285 95.383400,169.651077 96.340477,165.913513 
	C98.117905,163.884293 99.559105,161.942444 101.000244,160.422668 
	C100.333969,167.922531 99.269844,174.990204 99.089462,182.080368 
	C98.773819,194.486725 99.029648,206.906967 98.987610,219.321213 
	C98.968658,224.916046 99.093903,230.535690 98.599800,236.094864 
	C98.331284,239.115799 96.901276,242.033493 95.995163,244.997772 
z"/>
    <path fill="#1D243D" opacity="1.000000" stroke="none"
          d="
M93.270172,192.377319 
	C94.232681,192.883942 95.821175,193.817810 95.854172,194.803741 
	C96.073265,201.350540 96.026848,207.910095 95.870155,214.460800 
	C95.849976,215.304153 94.695877,216.120392 93.698692,217.008972 
	C93.279083,208.988708 93.227852,200.908691 93.270172,192.377319 
z"/>
    <path fill="#1D243D" opacity="1.000000" stroke="none"
          d="
M96.004242,166.000885 
	C95.383400,169.651077 94.762558,173.301285 93.778564,177.016571 
	C93.338905,171.710358 93.262390,166.339035 93.247772,160.507309 
	C93.980835,160.031998 94.652000,160.017090 95.663803,160.428894 
	C96.004379,162.570694 96.004318,164.285797 96.004242,166.000885 
z"/>
    <path fill="#1D243D" opacity="1.000000" stroke="none"
          d="
M93.320908,187.274460 
	C94.070206,187.269333 94.733398,187.620499 95.396576,187.971664 
	C94.915588,188.319138 94.434601,188.666611 93.670883,189.046692 
	C93.337036,188.596451 93.285919,188.113602 93.320908,187.274460 
z"/>
    <path fill="#232945" opacity="1.000000" stroke="none"
          d="
M404.979584,180.004944 
	C404.986603,192.614670 404.738129,205.231064 405.067841,217.832352 
	C405.445984,232.281540 406.312683,246.718567 407.049286,261.156677 
	C407.111053,262.368011 407.795715,263.547516 408.559784,264.875854 
	C408.972198,269.696045 409.015869,274.382172 408.653778,279.651184 
	C407.829437,282.823547 407.410858,285.413055 406.618591,287.875519 
	C405.830017,286.237579 405.088409,284.731201 405.067413,283.214844 
	C405.021759,279.914948 405.587677,276.601257 405.470276,273.308655 
	C405.083313,262.457306 404.643921,251.603867 403.949615,240.768845 
	C403.463654,233.185013 402.175629,225.642670 401.902863,218.058167 
	C401.676086,211.750946 402.470398,205.411453 402.682465,199.081909 
	C402.770081,196.466873 402.515381,193.840561 402.421600,191.219193 
	C402.275940,187.147171 402.134796,183.074997 402.282043,179.132965 
	C403.374817,179.510345 404.177185,179.757645 404.979584,180.004944 
z"/>
    <path fill="#21263E" opacity="1.000000" stroke="none"
          d="
M409.093781,326.001038 
	C409.129883,328.043976 409.165985,330.086914 408.786011,332.661072 
	C407.250275,335.129791 406.130615,337.067261 404.844238,338.627930 
	C403.481171,332.230835 403.645203,326.391357 406.980286,321.366638 
	C407.689240,323.174286 408.391510,324.587646 409.093781,326.001038 
z"/>
    <path fill="#232945" opacity="1.000000" stroke="none"
          d="
M409.151550,325.542908 
	C408.391510,324.587646 407.689240,323.174286 406.983185,320.954468 
	C406.974976,318.770630 406.970551,317.393188 406.976196,315.679565 
	C406.989197,314.895386 406.992096,314.447388 407.342834,313.999146 
	C408.154968,314.000885 408.619293,314.002838 409.083618,314.004761 
	C409.125519,317.698090 409.167450,321.391449 409.151550,325.542908 
z"/>
    <path fill="#232945" opacity="1.000000" stroke="none"
          d="
M405.010956,339.004730 
	C406.130615,337.067261 407.250275,335.129791 408.727539,333.095673 
	C409.144745,334.028046 409.204407,335.057037 409.278687,336.471191 
	C409.041443,338.382294 408.789581,339.908234 407.985168,341.593018 
	C406.289734,341.500427 405.146851,341.248993 404.115387,340.741455 
	C404.488220,339.991791 404.749573,339.498260 405.010956,339.004730 
z"/>
    <path fill="#343752" opacity="1.000000" stroke="none"
          d="
M406.992279,288.002533 
	C407.410858,285.413055 407.829437,282.823547 408.611542,280.115570 
	C409.032104,283.361603 409.089142,286.726166 408.856018,290.378021 
	C408.042694,290.112671 407.519531,289.559998 406.996796,288.756073 
	C406.995575,288.337372 406.993927,288.169952 406.992279,288.002533 
z"/>
    <path fill="#515474" opacity="1.000000" stroke="none"
          d="
M409.151001,297.001953 
	C409.316986,299.459625 409.482971,301.917267 409.134277,304.693298 
	C408.420135,305.004272 408.220703,304.996887 408.004364,304.546265 
	C407.983643,301.730255 407.979828,299.357452 408.269897,296.980042 
	C408.759552,296.984283 408.955292,296.993134 409.151001,297.001953 
z"/>
    <path fill="#232945" opacity="1.000000" stroke="none"
          d="
M409.161987,296.573181 
	C408.955292,296.993134 408.759552,296.984283 408.020660,296.674805 
	C407.317139,293.918549 407.156738,291.462952 406.996338,289.007324 
	C407.519531,289.559998 408.042694,290.112671 408.798981,290.833557 
	C409.079071,292.716003 409.126007,294.430206 409.161987,296.573181 
z"/>
    <path fill="#232945" opacity="1.000000" stroke="none"
          d="
M408.021301,304.989502 
	C408.220703,304.996887 408.420135,305.004272 408.920349,305.005554 
	C409.212219,306.715454 409.203278,308.431396 408.784912,310.574219 
	C407.915375,311.000885 407.455231,311.000702 406.995789,310.584167 
	C406.995239,308.780548 406.993958,307.393280 407.124756,305.799683 
	C407.466522,305.334961 407.721344,305.133698 408.021301,304.989502 
z"/>
    <path fill="#21263E" opacity="1.000000" stroke="none"
          d="
M406.995117,311.000519 
	C407.455231,311.000702 407.915375,311.000885 408.721222,310.998840 
	C409.107513,311.749725 409.148071,312.502869 409.136108,313.630371 
	C408.619293,314.002838 408.154968,314.000885 407.125854,313.795288 
	C406.705780,312.727905 406.850464,311.864197 406.995117,311.000519 
z"/>
    <path fill="#1A1C2C" opacity="1.000000" stroke="none"
          d="
M96.340485,165.913513 
	C96.004318,164.285797 96.004379,162.570694 96.001762,160.426880 
	C96.003296,159.250748 96.007507,158.503326 96.367378,157.273041 
	C97.463562,154.837402 98.841446,152.881821 98.832977,150.932297 
	C98.798477,142.995560 102.160461,136.036682 106.967819,130.638107 
	C113.467117,123.339508 121.578468,117.476425 129.362198,110.942497 
	C132.151428,109.593132 134.576614,108.298706 137.438995,107.003387 
	C139.916412,107.000092 141.956635,106.997681 144.465729,106.996849 
	C155.851349,107.000267 166.768372,106.962151 177.684601,107.038383 
	C179.813766,107.053261 181.937836,107.530403 184.067657,107.763283 
	C191.845032,108.613663 199.644958,109.296501 207.393188,110.357948 
	C211.295105,110.892471 215.061493,112.448402 218.964844,112.932945 
	C225.283539,113.717331 231.732513,113.579361 238.003143,114.593552 
	C247.067307,116.059563 255.963867,118.597176 265.041473,119.933258 
	C271.677490,120.909966 278.598969,120.052124 285.192474,121.182640 
	C291.592407,122.279961 299.693176,121.506348 301.705719,130.790680 
	C301.886566,131.624939 303.724121,132.506531 304.841583,132.576309 
	C305.494354,132.617065 306.680725,131.179062 306.870392,130.251602 
	C307.454742,127.394211 308.661560,125.949699 311.880188,125.957123 
	C314.818024,125.963913 317.751221,125.093330 320.700104,124.715843 
	C321.764069,124.579643 322.935608,124.560188 323.910645,124.904678 
	C324.194672,125.005035 324.085571,126.565430 323.952057,127.424782 
	C323.705994,129.008728 323.308502,130.569138 322.974121,132.139359 
	C324.831360,132.082489 326.688385,131.989578 328.545929,131.976364 
	C332.196320,131.950394 335.847015,131.968719 339.718811,131.968719 
	C339.029633,134.452805 338.629425,135.895370 337.833649,138.763687 
	C341.085358,137.090363 343.019653,136.094986 343.982574,135.599457 
	C346.787872,136.460648 348.740112,136.924866 350.586731,137.655869 
	C354.088348,139.042053 358.143250,139.897034 360.796936,142.278168 
	C362.835693,144.107468 363.960052,144.991150 366.558289,144.077667 
	C367.937195,143.592865 370.621429,143.412918 371.015625,144.088196 
	C373.577637,148.477081 375.703033,153.124008 377.909119,157.716354 
	C379.296387,160.604172 380.156158,163.844284 381.987030,166.400253 
	C386.270966,172.380875 387.398895,181.092239 383.569946,185.999512 
	C381.163177,185.842896 379.170227,185.795959 377.213562,185.504807 
	C373.908417,185.012970 370.621582,184.391434 367.337891,183.767273 
	C366.537201,183.615067 365.680389,183.387955 365.017059,182.944458 
	C361.226562,180.410263 357.588501,177.633362 353.700592,175.263870 
	C349.942261,172.973373 346.147614,170.021286 342.009644,169.223557 
	C333.129944,167.511688 324.018829,167.000397 315.081757,165.658081 
	C321.197296,159.923340 328.526825,159.182892 335.881622,162.322922 
	C337.994843,163.225159 341.050232,162.212860 343.570312,161.630997 
	C344.093933,161.510101 344.711517,159.198532 344.350922,158.253128 
	C341.244598,150.108932 339.618988,149.475891 330.712219,148.839584 
	C326.350555,148.527985 320.517303,151.171494 317.968475,144.566360 
	C317.763580,144.035385 315.796661,143.925659 314.694427,144.044754 
	C310.092865,144.541946 305.498169,145.130768 300.921356,145.821213 
	C296.355194,146.510071 293.862946,144.791595 294.213531,141.008347 
	C294.787201,134.817993 293.516357,133.543671 287.559509,134.667328 
	C284.487640,135.246750 282.339203,134.955658 281.811646,131.201828 
	C281.694733,130.370148 280.115631,129.251465 279.101624,129.123764 
	C274.741089,128.574600 270.300385,128.592148 265.971436,127.892525 
	C263.907654,127.558968 262.037231,126.064949 260.062592,125.131729 
	C258.686676,124.481461 256.982788,123.098312 255.969574,123.481476 
	C254.796722,123.925003 254.091919,125.884850 253.420990,127.298889 
	C252.744125,128.725433 252.357803,130.289856 251.844177,131.793869 
	C249.996048,131.017868 247.236267,130.753021 246.463196,129.374237 
	C243.646744,124.351151 238.889053,122.253502 234.011017,121.167389 
	C226.708694,119.541489 219.149353,119.095856 211.726822,117.967430 
	C209.645721,117.651047 207.633163,116.057617 205.636597,116.144165 
	C191.584976,116.753319 178.623383,108.868370 163.848419,112.272499 
	C155.067368,114.295624 145.225189,111.440170 135.856293,111.381241 
	C133.578751,111.366920 131.286240,113.730049 128.797791,115.127991 
	C128.341202,115.459908 128.142883,115.708122 127.656235,116.054008 
	C124.874969,118.404633 122.437485,120.701859 120.000000,122.999542 
	C120.000000,123.000000 119.999084,123.000000 119.661530,123.051888 
	C118.215836,124.402008 117.107697,125.700241 115.708031,127.159760 
	C109.600426,131.915543 105.702171,137.748764 103.727539,145.044693 
	C103.304245,145.726761 103.151566,146.363373 102.998848,147.333145 
	C102.998589,148.110474 102.998383,148.554672 102.656601,149.093903 
	C101.877777,150.460403 101.440529,151.731842 101.002945,153.419800 
	C101.003784,155.224808 101.004944,156.613312 101.005066,158.334961 
	C101.002785,159.112259 101.001549,159.556442 101.000305,160.000610 
	C99.559105,161.942444 98.117905,163.884293 96.340485,165.913513 
M347.182373,160.585007 
	C348.330994,161.849121 349.479645,163.113220 350.628265,164.377319 
	C350.863464,162.944763 351.687897,161.253494 351.198578,160.139069 
	C350.426117,158.379868 348.759949,157.254471 347.182373,160.585007 
M349.236908,148.492752 
	C349.526306,148.782852 349.815735,149.072952 350.105133,149.363037 
	C350.307648,149.004303 350.510132,148.645554 350.712646,148.286819 
	C350.260925,148.185043 349.809204,148.083267 349.236908,148.492752 
z"/>
    <path fill="#212335" opacity="1.000000" stroke="none"
          d="
M128.998169,110.997437 
	C121.578468,117.476425 113.467117,123.339508 106.967819,130.638107 
	C102.160461,136.036682 98.798477,142.995560 98.832977,150.932297 
	C98.841446,152.881821 97.463562,154.837402 96.369919,156.899307 
	C95.693474,142.737381 100.901573,130.713562 110.863037,120.653976 
	C114.325768,117.157135 117.893692,113.764465 122.068268,110.107796 
	C124.816322,109.261841 126.909683,108.632317 129.002350,108.377090 
	C129.000504,109.500069 128.999344,110.248756 128.998169,110.997437 
z"/>
    <path fill="#25273A" opacity="1.000000" stroke="none"
          d="
M129.003052,108.002785 
	C126.909683,108.632317 124.816322,109.261841 122.362236,109.945740 
	C122.246765,109.192162 122.492020,108.384216 122.865196,107.283081 
	C122.993118,106.989899 122.997879,106.999092 123.385750,106.983749 
	C126.849083,106.312294 129.924545,105.656166 132.883194,105.254257 
	C132.511536,106.006248 132.256683,106.504036 131.685699,107.040833 
	C130.580734,107.387489 129.791885,107.695137 129.003052,108.002785 
z"/>
    <path fill="#343752" opacity="1.000000" stroke="none"
          d="
M100.547104,127.013420 
	C101.477203,124.998100 102.753418,122.952065 104.337753,120.826126 
	C103.394989,122.825050 102.144104,124.903877 100.547104,127.013420 
z"/>
    <path fill="#343752" opacity="1.000000" stroke="none"
          d="
M98.270912,132.088287 
	C98.454063,130.791336 98.908470,129.582047 99.601898,128.158936 
	C101.480324,129.991531 101.333809,131.489731 98.270912,132.088287 
z"/>
    <path fill="#3D415D" opacity="1.000000" stroke="none"
          d="
M150.570053,87.137184 
	C152.463608,87.712151 153.962875,88.763107 155.464279,88.766205 
	C159.007584,88.773529 162.551895,88.281891 166.552643,88.007874 
	C164.133026,89.009132 161.321396,90.485870 158.366364,90.875816 
	C152.551651,91.643143 146.650787,91.737549 140.802277,92.287926 
	C139.815186,92.380806 138.974167,93.558380 137.953705,93.884422 
	C136.726959,94.276367 135.380417,94.293427 134.014923,94.150391 
	C137.437515,92.014511 140.864792,90.052986 144.452606,88.450981 
	C146.206543,87.667824 148.259247,87.553802 150.570053,87.137184 
z"/>
    <path fill="#171C33" opacity="1.000000" stroke="none"
          d="
M315.002441,165.997559 
	C324.018829,167.000397 333.129944,167.511688 342.009644,169.223557 
	C346.147614,170.021286 349.942261,172.973373 353.700592,175.263870 
	C357.588501,177.633362 361.226562,180.410263 365.017059,182.944458 
	C365.680389,183.387955 366.537201,183.615067 367.337891,183.767273 
	C370.621582,184.391434 373.908417,185.012970 377.213562,185.504807 
	C379.170227,185.795959 381.163177,185.842896 383.569916,186.444092 
	C384.584656,190.861359 382.183228,195.909683 388.247498,198.285004 
	C388.354889,200.658859 388.179810,202.743683 388.088318,204.832184 
	C388.012787,206.556808 387.694855,208.368454 388.089081,209.994949 
	C388.827789,213.042480 390.334290,215.919037 390.935944,218.981735 
	C392.654083,227.727432 393.842957,236.581543 395.717804,245.290131 
	C396.652100,249.630020 398.510010,253.473389 396.416901,258.237976 
	C395.289642,260.803986 396.280945,264.442322 396.757111,267.528870 
	C397.182831,270.288361 398.596771,272.911804 398.904419,275.670044 
	C399.785492,283.570526 400.100006,291.537170 401.082092,299.422394 
	C401.710815,304.470215 403.034149,309.443665 404.293701,314.387360 
	C404.477875,315.110199 406.041046,315.481689 406.966125,316.015747 
	C406.970551,317.393188 406.974976,318.770630 406.976501,320.560211 
	C403.645203,326.391357 403.481171,332.230835 404.844238,338.627930 
	C404.749573,339.498260 404.488220,339.991791 404.114136,341.142761 
	C404.340271,343.533081 404.679077,345.265961 405.013702,347.331604 
	C405.004700,348.107941 404.999908,348.551544 404.995117,348.995117 
	C404.258118,350.023376 403.075500,350.965057 402.856110,352.093903 
	C401.378387,359.697937 399.395538,366.981110 392.411133,371.588867 
	C392.684601,369.914124 393.067413,368.421082 393.866577,367.200684 
	C399.771973,358.182587 400.871826,348.343628 399.264099,337.929871 
	C398.888916,335.499512 399.064392,332.965332 399.157532,330.485321 
	C399.378174,324.608917 399.836823,318.738312 399.921509,312.861359 
	C399.959198,310.245880 399.326935,307.620758 398.981750,304.592834 
	C398.458221,301.418274 397.954865,298.650299 397.444550,295.883606 
	C394.963928,282.433563 391.518402,269.096313 392.930298,255.202118 
	C393.075562,253.772507 392.831512,252.167542 392.301788,250.828369 
	C389.822601,244.560516 387.167908,238.362259 384.600739,232.128906 
	C383.254852,228.861008 382.827271,224.833954 377.619019,225.220169 
	C376.973053,225.268066 375.776215,222.797836 375.489105,221.363449 
	C375.213531,219.986465 375.788574,218.439224 375.987427,216.557785 
	C373.604126,211.242355 372.125793,205.529312 368.630798,201.618546 
	C363.389313,195.753525 361.045349,186.296066 351.008148,185.592148 
	C350.503296,185.556732 350.125122,184.602570 349.566040,184.306000 
	C346.598663,182.731812 343.702209,180.920441 340.562347,179.810043 
	C338.328583,179.020065 335.689575,179.463409 333.333771,178.915970 
	C323.488892,176.628128 313.588562,176.933426 303.957886,179.341278 
	C296.357513,181.241516 289.132111,184.608307 281.654999,187.064392 
	C280.255554,187.524094 277.375580,187.250763 277.019257,186.472809 
	C275.276886,182.668564 272.181213,182.942429 269.067078,182.639465 
	C270.552216,178.147186 274.179749,178.563110 277.098480,179.115723 
	C284.692200,180.553482 287.922607,174.097702 293.350464,170.996841 
	C294.800293,170.657990 295.901367,170.327774 297.406799,169.995560 
	C299.566254,169.657669 301.337219,169.388016 303.073273,168.972504 
	C307.058685,168.018616 311.027130,166.993652 315.002441,165.997559 
z"/>
    <path fill="#13172A" opacity="1.000000" stroke="none"
          d="
M398.998779,305.000000 
	C399.326935,307.620758 399.959198,310.245880 399.921509,312.861359 
	C399.836823,318.738312 399.378174,324.608917 399.157532,330.485321 
	C399.064392,332.965332 398.888916,335.499512 399.264099,337.929871 
	C400.871826,348.343628 399.771973,358.182587 393.866577,367.200684 
	C393.067413,368.421082 392.684601,369.914124 392.056946,371.642944 
	C390.841217,374.192505 389.677490,376.380096 388.256897,378.783875 
	C386.939514,379.358521 385.679169,379.468109 384.859161,380.126282 
	C383.029327,381.594940 381.419281,383.337402 379.413513,384.637573 
	C382.770966,378.634491 387.030518,373.246948 389.917694,367.203735 
	C392.419769,361.966675 395.264740,355.765564 394.638153,350.376587 
	C392.873962,335.202759 397.725281,319.275696 389.896362,304.825958 
	C387.862671,301.072449 385.312775,297.598633 383.011841,293.626831 
	C384.040283,291.923309 385.056854,290.589325 386.073425,289.255341 
	C387.274323,290.191223 388.735138,290.928406 389.629425,292.098602 
	C392.855743,296.320221 395.891205,300.687653 398.998779,305.000000 
z"/>
    <path fill="#232945" opacity="1.000000" stroke="none"
          d="
M405.005280,349.344330 
	C404.999908,348.551544 405.004700,348.107941 405.244568,347.148560 
	C406.244202,346.083191 407.008820,345.533600 407.773438,344.984009 
	C407.345947,347.471313 406.918518,349.958588 406.246399,352.723083 
	C405.672974,351.898041 405.344208,350.795807 405.005280,349.344330 
z"/>
    <path fill="#767C96" opacity="1.000000" stroke="none"
          d="
M409.463928,201.798798 
	C409.133881,200.071533 409.006348,198.186203 409.267151,196.182068 
	C409.848633,197.410172 410.041748,198.757050 410.252838,200.452240 
	C410.069366,201.080612 409.867889,201.360672 409.463928,201.798798 
z"/>
    <path fill="#1D243D" opacity="1.000000" stroke="none"
          d="
M407.841858,344.619690 
	C407.008820,345.533600 406.244202,346.083191 405.248779,346.815826 
	C404.679077,345.265961 404.340271,343.533081 404.002686,341.398865 
	C405.146851,341.248993 406.289734,341.500427 407.760803,341.898041 
	C408.029419,342.781250 407.969849,343.518280 407.841858,344.619690 
z"/>
    <path fill="#1D243D" opacity="1.000000" stroke="none"
          d="
M380.317261,389.872864 
	C379.911072,386.964569 381.489349,385.875763 384.550232,385.981628 
	C384.436920,386.565430 383.945923,387.159180 383.223572,387.940063 
	C382.660400,388.570526 382.328583,389.013947 382.012695,389.744293 
	C381.572632,389.988556 381.116638,389.945862 380.317261,389.872864 
z"/>
    <path fill="#1D243D" opacity="1.000000" stroke="none"
          d="
M375.429321,393.089417 
	C375.878784,392.437347 376.644287,391.737122 377.774414,391.039246 
	C377.341187,391.708160 376.543304,392.374725 375.429321,393.089417 
z"/>
    <path fill="#25273A" opacity="1.000000" stroke="none"
          d="
M213.014435,95.970444 
	C213.455887,95.977615 213.897324,95.984787 214.770966,96.340378 
	C218.469208,97.457367 221.735275,98.225937 225.445389,98.995621 
	C228.259476,98.996605 230.629486,98.996468 233.468201,98.997437 
	C249.850128,99.665489 265.759369,100.463745 281.678101,100.951187 
	C291.558838,101.253746 301.487061,100.623886 311.328247,101.329147 
	C316.003265,101.664177 320.177826,102.077133 324.373657,99.001816 
	C325.497894,99.003044 326.247345,99.003860 327.057983,99.355484 
	C328.656281,102.931000 331.068665,102.658241 334.208527,102.245697 
	C338.515076,101.679855 343.073853,101.638397 347.327728,102.429916 
	C352.328491,103.360382 357.118500,105.423500 362.371460,107.054657 
	C369.071136,108.734505 374.993896,111.036697 379.197083,116.448029 
	C379.775787,117.193039 381.021088,117.410645 381.627930,118.144997 
	C385.381470,122.687401 390.800995,126.781120 392.365936,132.011597 
	C395.658325,143.015579 396.912018,154.629562 399.001709,166.441772 
	C398.333984,169.926712 397.666992,172.963058 397.000000,175.548325 
	C396.629089,171.846832 396.622375,168.502274 395.811554,165.365555 
	C394.114807,158.801788 391.370972,152.460526 390.168549,145.826431 
	C386.977661,128.222168 376.771790,117.107635 360.089935,111.610252 
	C356.974670,110.583641 353.339050,110.874420 350.437500,109.508240 
	C340.305298,104.737617 329.667267,107.147705 319.246094,106.769882 
	C310.986816,106.470451 302.709747,106.659340 294.440582,106.636444 
	C290.492004,106.625511 286.543365,106.617462 282.594818,106.625008 
	C280.284393,106.629417 277.955322,106.864601 275.667633,106.647812 
	C271.238647,106.228096 266.845642,105.248817 262.414795,105.070190 
	C255.335953,104.784821 248.213791,105.328537 241.155029,104.852837 
	C232.516953,104.270691 223.945740,102.717453 215.308853,102.091339 
	C202.480698,101.161400 189.623489,100.218170 176.772736,100.128929 
	C163.478271,100.036598 149.939911,97.810463 137.169037,102.691856 
	C139.004929,101.384766 140.547180,99.938370 142.349304,99.449081 
	C157.422791,95.356438 172.748138,96.600838 188.061691,97.490974 
	C196.424973,97.977104 204.883850,99.512535 213.014435,95.970444 
z"/>
    <path fill="#2C2F44" opacity="1.000000" stroke="none"
          d="
M326.996826,99.004677 
	C326.247345,99.003860 325.497894,99.003044 324.073914,98.749573 
	C319.808960,98.664474 316.218903,98.963867 312.627869,98.976646 
	C297.446899,99.030670 282.265625,99.001968 267.084442,98.994255 
	C265.923767,98.993668 264.756592,98.986267 263.603577,98.870941 
	C257.563416,98.266815 251.513474,97.727692 245.498169,96.930351 
	C243.940948,96.723938 242.496124,95.669418 240.999680,95.004456 
	C254.483154,95.002541 267.966614,94.999725 281.450104,94.998940 
	C297.455963,94.998009 313.461853,94.998741 329.467712,94.998955 
	C334.572479,94.999023 339.696442,94.729454 344.775635,95.090195 
	C348.489990,95.354004 352.400177,95.850647 355.775269,97.292091 
	C363.292206,100.502441 371.317566,103.335945 377.698730,108.205940 
	C387.903748,115.994255 396.320526,125.113441 399.481506,138.949203 
	C401.631134,148.358261 402.741028,157.526352 403.148834,167.006393 
	C403.323029,171.056107 404.351624,175.069092 404.985779,179.551849 
	C404.177185,179.757645 403.374817,179.510345 402.284058,178.680145 
	C401.430786,173.955505 403.602570,169.137024 399.002441,165.993179 
	C396.912018,154.629562 395.658325,143.015579 392.365936,132.011597 
	C390.800995,126.781120 385.381470,122.687401 381.627930,118.144997 
	C381.021088,117.410645 379.775787,117.193039 379.197083,116.448029 
	C374.993896,111.036697 369.071136,108.734505 362.307739,106.695976 
	C360.156708,105.196587 358.529083,103.920288 356.698730,103.092110 
	C355.084961,102.361946 352.845520,102.623146 351.577484,101.591873 
	C347.326508,98.134705 342.486298,99.106010 337.733521,99.093254 
	C334.154572,99.083649 330.575714,99.035606 326.996826,99.004677 
z"/>
    <path fill="#282B43" opacity="1.000000" stroke="none"
          d="
M213.012543,95.726959 
	C204.883850,99.512535 196.424973,97.977104 188.061691,97.490974 
	C172.748138,96.600838 157.422791,95.356438 142.349304,99.449081 
	C140.547180,99.938370 139.004929,101.384766 136.831909,102.703979 
	C135.214401,103.680305 134.107208,104.340179 133.000000,105.000046 
	C129.924545,105.656166 126.849083,106.312294 123.381958,106.979134 
	C129.539917,100.564087 137.765594,96.758934 146.425537,95.295387 
	C156.802261,93.541687 167.499344,93.184639 178.059784,93.161194 
	C188.055862,93.138992 198.054657,94.331291 208.921967,94.993393 
	C210.862396,94.997070 211.933075,94.996803 213.003769,94.996536 
	C213.003769,94.996536 213.010666,95.483475 213.012543,95.726959 
z"/>
    <path fill="#282B43" opacity="1.000000" stroke="none"
          d="
M240.624817,95.002869 
	C242.496124,95.669418 243.940948,96.723938 245.498169,96.930351 
	C251.513474,97.727692 257.563416,98.266815 263.603577,98.870941 
	C264.756592,98.986267 265.923767,98.993668 267.084442,98.994255 
	C282.265625,99.001968 297.446899,99.030670 312.627869,98.976646 
	C316.218903,98.963867 319.808960,98.664474 323.699158,98.749161 
	C320.177826,102.077133 316.003265,101.664177 311.328247,101.329147 
	C301.487061,100.623886 291.558838,101.253746 281.678101,100.951187 
	C265.759369,100.463745 249.850128,99.665489 233.564758,98.656754 
	C234.795380,97.212654 236.398117,96.110344 238.000854,95.008041 
	C238.750565,95.005783 239.500259,95.003525 240.624817,95.002869 
z"/>
    <path fill="#3D415D" opacity="1.000000" stroke="none"
          d="
M169.296936,88.264862 
	C169.737183,87.686272 170.487488,87.042206 171.202484,87.079285 
	C178.923874,87.479813 186.639694,87.987495 194.679413,88.727737 
	C186.531403,88.831596 178.061005,88.673630 169.296936,88.264862 
z"/>
    <path fill="#2C2F44" opacity="1.000000" stroke="none"
          d="
M237.534683,95.004883 
	C236.398117,96.110344 234.795380,97.212654 233.096069,98.655655 
	C230.629486,98.996468 228.259476,98.996605 225.377167,98.677261 
	C224.242905,97.241364 223.620911,96.124947 222.998917,95.008530 
	C227.688782,95.006271 232.378647,95.004005 237.534683,95.004883 
z"/>
    <path fill="#282B43" opacity="1.000000" stroke="none"
          d="
M222.571640,95.005417 
	C223.620911,96.124947 224.242905,97.241364 224.933105,98.676147 
	C221.735275,98.225937 218.469208,97.457367 215.101929,96.332962 
	C217.381927,95.652184 219.763153,95.327240 222.571640,95.005417 
z"/>
    <path fill="#3D415D" opacity="1.000000" stroke="none"
          d="
M219.099152,88.408989 
	C222.770294,88.184059 226.562393,88.310783 230.679840,88.682739 
	C227.016418,93.126175 223.134201,89.821030 219.099152,88.408989 
z"/>
    <path fill="#3D415D" opacity="1.000000" stroke="none"
          d="
M210.267975,89.192200 
	C212.053467,88.623199 214.119522,88.314453 216.602280,88.027298 
	C214.862167,88.516731 212.705368,88.984589 210.267975,89.192200 
z"/>
    <path fill="#3D415D" opacity="1.000000" stroke="none"
          d="
M202.226105,89.206573 
	C203.173874,88.811966 204.353409,88.654617 205.771683,88.717682 
	C204.826233,89.106674 203.642075,89.275253 202.226105,89.206573 
z"/>
    <path fill="#2C2F44" opacity="1.000000" stroke="none"
          d="
M212.916534,94.669708 
	C211.933075,94.996803 210.862396,94.997070 209.389877,94.994156 
	C209.898590,92.582626 211.181732,92.382751 212.916534,94.669708 
z"/>
    <path fill="#101325" opacity="1.000000" stroke="none"
          d="
M101.000252,160.422668 
	C101.001549,159.556442 101.002785,159.112259 101.353165,158.327026 
	C102.802292,157.657578 103.902290,157.329178 105.248688,157.288635 
	C105.359276,159.652267 105.766037,161.959885 104.994995,163.764191 
	C101.394592,172.189560 102.157478,180.769135 102.798706,189.591721 
	C103.524628,199.579758 102.743820,209.669357 103.183205,219.690018 
	C103.364601,223.826767 105.016571,227.899017 106.011261,232.367691 
	C106.681786,234.489685 107.340744,236.244598 107.982704,238.406128 
	C106.977036,246.875320 105.988365,254.937897 104.780701,263.191132 
	C104.374672,263.921173 104.187637,264.460602 104.000549,265.437500 
	C104.000526,267.916656 104.000565,269.958344 104.000359,272.458923 
	C104.666550,277.945221 105.332993,282.972626 105.996796,288.404968 
	C105.128120,293.000946 104.011665,297.159973 103.471420,301.392517 
	C102.998108,305.100800 103.140701,308.890991 103.066460,312.646088 
	C102.927704,319.664001 102.374603,326.713959 102.855110,333.691315 
	C103.250763,339.436584 105.197662,345.058136 105.910500,350.802368 
	C107.046684,359.958099 111.668327,366.983582 118.137611,373.168945 
	C119.440453,374.414551 120.063530,376.371185 120.711487,377.841400 
	C118.947968,376.789337 117.472954,375.895874 115.682716,374.960236 
	C114.578133,374.279083 113.788765,373.640137 112.988708,372.638245 
	C111.319588,370.516876 109.661163,368.758453 107.850647,366.678436 
	C105.783203,361.627991 103.228104,357.049835 102.071838,352.142120 
	C98.529694,337.107483 97.790451,321.859833 98.850616,306.392609 
	C99.618996,295.182495 99.000954,283.877350 99.000175,272.614563 
	C98.999847,267.852142 99.346481,263.053986 98.864876,258.340607 
	C98.573921,255.493073 96.995636,252.777054 95.995773,250.001953 
	C95.994720,248.611938 95.993668,247.221924 95.993889,245.414841 
	C96.901276,242.033493 98.331284,239.115799 98.599800,236.094864 
	C99.093903,230.535690 98.968658,224.916046 98.987610,219.321213 
	C99.029648,206.906967 98.773819,194.486725 99.089462,182.080368 
	C99.269844,174.990204 100.333969,167.922531 101.000252,160.422668 
z"/>
    <path fill="#14192C" opacity="1.000000" stroke="none"
          d="
M95.992828,250.470413 
	C96.995636,252.777054 98.573921,255.493073 98.864876,258.340607 
	C99.346481,263.053986 98.999847,267.852142 99.000175,272.614563 
	C99.000954,283.877350 99.618996,295.182495 98.850616,306.392609 
	C97.790451,321.859833 98.529694,337.107483 102.071838,352.142120 
	C103.228104,357.049835 105.783203,361.627991 107.865715,367.035156 
	C109.688385,369.476044 111.343887,371.238647 112.999390,373.001221 
	C113.788765,373.640137 114.578133,374.279083 115.683304,375.334595 
	C116.000229,376.499969 116.001335,377.248779 116.002441,377.997559 
	C116.002441,377.997559 115.996109,378.003784 115.989151,378.010376 
	C114.249825,377.107452 112.113365,376.575317 110.852707,375.225311 
	C104.219788,368.122314 99.944908,359.815125 98.993439,349.997284 
	C98.913483,349.172211 99.164757,348.200531 98.813362,347.533264 
	C92.835190,336.180634 95.930649,323.774689 95.360886,311.978241 
	C94.380943,291.689240 95.659363,271.291168 95.992828,250.470413 
z"/>
    <path fill="#101325" opacity="1.000000" stroke="none"
          d="
M383.000000,293.996338 
	C385.312775,297.598633 387.862671,301.072449 389.896362,304.825958 
	C397.725281,319.275696 392.873962,335.202759 394.638153,350.376587 
	C395.264740,355.765564 392.419769,361.966675 389.917694,367.203735 
	C387.030518,373.246948 382.770966,378.634491 379.052917,384.652161 
	C378.854919,385.289825 378.656158,385.537811 377.855743,385.882568 
	C376.538818,386.681213 375.768250,387.338776 374.997681,387.996368 
	C374.554810,387.998291 374.111938,388.000214 372.963928,388.059631 
	C367.502411,389.311371 362.647980,390.365540 360.998779,395.998779 
	C360.250519,396.000854 359.502289,396.002930 358.380066,396.006775 
	C346.296112,396.938477 334.598755,398.122070 322.871521,398.705841 
	C315.505920,399.072479 308.095642,398.459900 300.705078,398.444122 
	C297.258972,398.436768 293.808899,399.015472 290.366089,398.964142 
	C273.263336,398.709381 256.162720,398.315765 239.060410,398.025635 
	C237.258865,397.995056 235.451233,398.322205 233.322678,398.743683 
	C231.932816,399.003571 230.866714,399.003143 229.400833,399.003510 
	C222.642166,398.414978 216.290802,397.440887 209.922806,397.316345 
	C196.675537,397.057312 183.419388,397.274628 170.167023,397.242493 
	C164.112305,397.227814 158.051315,397.233276 152.005051,396.963501 
	C145.012436,396.651428 138.518082,395.062134 133.187347,389.876740 
	C131.136429,387.881714 128.084671,386.915588 125.197327,384.898163 
	C124.603394,383.210846 124.301086,382.106049 124.344254,381.054962 
	C136.438065,389.231812 148.543152,396.244415 163.728897,394.023010 
	C165.841110,393.713989 168.005234,393.567719 170.137863,393.624847 
	C178.148941,393.839355 186.160797,394.473480 194.164993,394.371552 
	C202.391907,394.266754 210.614761,393.042023 218.830978,393.126465 
	C226.881012,393.209167 234.913437,394.738708 242.966385,394.874542 
	C252.013016,395.027069 261.075348,394.032990 270.128387,394.073883 
	C282.853668,394.131348 295.577332,394.662598 308.300201,395.040527 
	C310.755920,395.113495 313.229431,395.737000 315.652924,395.553802 
	C328.849457,394.556122 342.111145,393.917786 355.180206,391.997589 
	C360.025269,391.285767 364.407776,387.425629 369.364166,384.989929 
	C371.240234,384.063477 373.176025,383.477997 374.192108,382.175232 
	C378.232483,376.994781 381.797028,371.439911 385.891174,366.305511 
	C391.597321,359.149506 391.790771,351.095459 390.386688,342.702850 
	C388.894958,333.786346 384.670502,325.371399 385.775635,315.929962 
	C385.952911,314.415710 383.979279,312.649658 382.999512,310.583099 
	C382.332306,307.110016 381.665558,304.053802 381.010590,300.625549 
	C381.681580,298.167786 382.340790,296.082062 383.000000,293.996338 
z"/>
    <path fill="#171C33" opacity="1.000000" stroke="none"
          d="
M226.874191,401.617554 
	C219.551422,401.836914 212.099991,401.680573 204.323395,401.266602 
	C211.580673,401.086578 219.163101,401.164246 226.874191,401.617554 
z"/>
    <path fill="#151625" opacity="1.000000" stroke="none"
          d="
M123.998779,381.001221 
	C124.301086,382.106049 124.603394,383.210846 124.953316,384.657227 
	C123.296005,383.579529 121.586670,382.165527 119.887787,380.739105 
	C118.823692,379.845642 117.775253,378.933533 116.361115,378.013672 
	C116.001335,377.248779 116.000229,376.499969 115.998528,375.376831 
	C117.472954,375.895874 118.947968,376.789337 120.763107,378.174011 
	C122.068321,379.443909 123.033417,380.222565 123.999252,381.000610 
	C124.000000,381.000000 123.998779,381.001221 123.998779,381.001221 
z"/>
    <path fill="#171C33" opacity="1.000000" stroke="none"
          d="
M353.690033,399.753113 
	C350.280731,400.671204 346.560181,401.333160 342.419983,401.997559 
	C344.859650,396.922028 349.378296,399.387207 353.690033,399.753113 
z"/>
    <path fill="#13172A" opacity="1.000000" stroke="none"
          d="
M361.351318,395.948730 
	C362.647980,390.365540 367.502411,389.311371 372.631775,388.060669 
	C369.237823,390.635742 365.470825,393.267212 361.351318,395.948730 
z"/>
    <path fill="#13172A" opacity="1.000000" stroke="none"
          d="
M375.317993,387.997803 
	C375.768250,387.338776 376.538818,386.681213 377.652832,386.010620 
	C377.210327,386.664764 376.424316,387.331970 375.317993,387.997803 
z"/>
    <path fill="#21263E" opacity="1.000000" stroke="none"
          d="
M399.001709,166.441772 
	C403.602570,169.137024 401.430786,173.955505 401.993683,178.550049 
	C402.134796,183.074997 402.275940,187.147171 402.421600,191.219193 
	C402.515381,193.840561 402.770081,196.466873 402.682465,199.081909 
	C402.470398,205.411453 401.676086,211.750946 401.902863,218.058167 
	C402.175629,225.642670 403.463654,233.185013 403.949615,240.768845 
	C404.643921,251.603867 405.083313,262.457306 405.470276,273.308655 
	C405.587677,276.601257 405.021759,279.914948 405.067413,283.214844 
	C405.088409,284.731201 405.830017,286.237579 406.618591,287.875519 
	C406.993927,288.169952 406.995575,288.337372 406.996796,288.756073 
	C407.156738,291.462952 407.317139,293.918549 407.726746,296.679413 
	C407.979828,299.357452 407.983643,301.730255 408.004364,304.546265 
	C407.721344,305.133698 407.466522,305.334961 406.757965,305.677582 
	C405.855927,305.085327 405.159973,304.436829 405.092133,303.728210 
	C403.194946,283.907043 401.057709,264.106232 400.931763,244.153259 
	C400.900543,239.210953 401.518097,233.415100 399.245758,229.525848 
	C395.371460,222.894852 396.640045,216.096405 396.181396,209.427017 
	C395.699707,202.422256 396.730774,195.320236 396.972687,188.256317 
	C397.112457,184.175156 396.999298,180.085327 397.000000,175.999390 
	C397.666992,172.963058 398.333984,169.926712 399.001709,166.441772 
z"/>
    <path fill="#212335" opacity="1.000000" stroke="none"
          d="
M397.000000,175.548325 
	C396.999298,180.085327 397.112457,184.175156 396.972687,188.256317 
	C396.730774,195.320236 395.699707,202.422256 396.181396,209.427017 
	C396.640045,216.096405 395.371460,222.894852 399.245758,229.525848 
	C401.518097,233.415100 400.900543,239.210953 400.931763,244.153259 
	C401.057709,264.106232 403.194946,283.907043 405.092133,303.728210 
	C405.159973,304.436829 405.855927,305.085327 406.625885,305.883942 
	C406.993958,307.393280 406.995239,308.780548 406.995819,310.584167 
	C406.850464,311.864197 406.705780,312.727905 406.778046,313.795471 
	C406.992096,314.447388 406.989197,314.895386 406.976196,315.679565 
	C406.041046,315.481689 404.477875,315.110199 404.293701,314.387360 
	C403.034149,309.443665 401.710815,304.470215 401.082092,299.422394 
	C400.100006,291.537170 399.785492,283.570526 398.904419,275.670044 
	C398.596771,272.911804 397.182831,270.288361 396.757111,267.528870 
	C396.280945,264.442322 395.289642,260.803986 396.416901,258.237976 
	C398.510010,253.473389 396.652100,249.630020 395.717804,245.290131 
	C393.842957,236.581543 392.654083,227.727432 390.935944,218.981735 
	C390.334290,215.919037 388.827789,213.042480 388.089081,209.994949 
	C387.694855,208.368454 388.012787,206.556808 388.088318,204.832184 
	C388.179810,202.743683 388.354889,200.658859 388.249817,197.891357 
	C388.655548,192.027496 389.666443,186.856750 389.839508,181.658096 
	C389.975403,177.576263 389.577332,173.325790 388.524292,169.388870 
	C386.729645,162.679535 384.269135,156.145782 382.024323,149.560074 
	C379.639862,142.564590 377.501678,135.453766 374.542084,128.706451 
	C373.744171,126.887329 370.462158,125.889648 368.123718,125.090553 
	C365.831665,124.307320 362.857941,124.947861 360.940643,123.750740 
	C355.991882,120.660797 349.343292,123.950172 344.958374,119.137863 
	C344.608429,118.753830 342.889099,119.128044 342.173157,119.651688 
	C339.058777,121.929680 336.778503,120.254105 334.022400,118.707031 
	C331.796875,117.457794 328.957520,117.268478 326.368225,116.712700 
	C324.613373,116.336044 322.826233,116.086273 321.042206,115.875496 
	C318.928741,115.625771 316.764130,115.124069 314.689880,115.352081 
	C307.650818,116.125816 300.591492,118.000244 293.972260,113.606087 
	C293.211456,113.101036 291.982117,112.872253 291.088379,113.064735 
	C283.769501,114.641014 276.698090,113.185883 269.432037,112.209450 
	C259.924866,110.931847 249.824768,112.629944 240.712952,110.245758 
	C231.344299,107.794380 221.877457,111.176071 212.638428,107.330978 
	C207.213547,105.073235 200.600281,105.338753 194.497421,105.107925 
	C179.545120,104.542389 164.579514,104.238625 149.617233,104.141167 
	C147.750046,104.129005 145.870621,105.997948 143.996857,106.995270 
	C141.956635,106.997681 139.916412,107.000092 137.022247,107.002007 
	C134.779480,107.001617 133.390656,107.001724 132.001831,107.001831 
	C132.256683,106.504036 132.511536,106.006248 132.883194,105.254257 
	C134.107208,104.340179 135.214401,103.680305 136.658722,103.008308 
	C149.939911,97.810463 163.478271,100.036598 176.772736,100.128929 
	C189.623489,100.218170 202.480698,101.161400 215.308853,102.091339 
	C223.945740,102.717453 232.516953,104.270691 241.155029,104.852837 
	C248.213791,105.328537 255.335953,104.784821 262.414795,105.070190 
	C266.845642,105.248817 271.238647,106.228096 275.667633,106.647812 
	C277.955322,106.864601 280.284393,106.629417 282.594818,106.625008 
	C286.543365,106.617462 290.492004,106.625511 294.440582,106.636444 
	C302.709747,106.659340 310.986816,106.470451 319.246094,106.769882 
	C329.667267,107.147705 340.305298,104.737617 350.437500,109.508240 
	C353.339050,110.874420 356.974670,110.583641 360.089935,111.610252 
	C376.771790,117.107635 386.977661,128.222168 390.168549,145.826431 
	C391.370972,152.460526 394.114807,158.801788 395.811554,165.365555 
	C396.622375,168.502274 396.629089,171.846832 397.000000,175.548325 
z"/>
    <path fill="#181A28" opacity="1.000000" stroke="none"
          d="
M315.081757,165.658081 
	C311.027130,166.993652 307.058685,168.018616 303.073273,168.972504 
	C301.337219,169.388016 299.566254,169.657669 297.466492,169.616608 
	C297.904053,165.831039 298.686188,162.422424 299.315033,159.681915 
	C293.220062,156.674545 287.067413,156.098953 285.119324,149.369461 
	C284.278259,146.464203 282.634064,145.223145 279.634521,147.523056 
	C277.727509,148.985260 275.395935,149.893768 273.496765,150.919800 
	C271.044342,148.698135 269.080383,146.672791 266.863007,144.979294 
	C264.636047,143.278488 262.294830,141.573334 259.736572,140.517212 
	C258.169708,139.870377 255.774231,139.812607 254.311127,140.571045 
	C246.810898,144.459030 243.360947,143.623688 237.984100,137.315262 
	C236.184341,135.203690 232.986328,133.933655 230.183258,133.108185 
	C225.789871,131.814377 221.077957,131.580246 216.714035,130.215820 
	C213.664658,129.262421 211.323029,128.618393 208.426971,130.825882 
	C205.021744,133.421463 202.671814,132.171509 202.022430,127.856964 
	C201.424805,123.886162 199.169876,121.719307 195.319275,120.967232 
	C193.858414,120.681908 192.451782,120.076523 190.984879,119.871796 
	C184.122543,118.914085 176.999817,116.501869 170.443436,117.555260 
	C163.090927,118.736557 156.515823,116.363731 149.562988,116.255913 
	C142.704010,116.149551 135.854355,115.443153 129.000610,115.000000 
	C131.286240,113.730049 133.578751,111.366920 135.856293,111.381241 
	C145.225189,111.440170 155.067368,114.295624 163.848419,112.272499 
	C178.623383,108.868370 191.584976,116.753319 205.636597,116.144165 
	C207.633163,116.057617 209.645721,117.651047 211.726822,117.967430 
	C219.149353,119.095856 226.708694,119.541489 234.011017,121.167389 
	C238.889053,122.253502 243.646744,124.351151 246.463196,129.374237 
	C247.236267,130.753021 249.996048,131.017868 251.844177,131.793869 
	C252.357803,130.289856 252.744125,128.725433 253.420990,127.298889 
	C254.091919,125.884850 254.796722,123.925003 255.969574,123.481476 
	C256.982788,123.098312 258.686676,124.481461 260.062592,125.131729 
	C262.037231,126.064949 263.907654,127.558968 265.971436,127.892525 
	C270.300385,128.592148 274.741089,128.574600 279.101624,129.123764 
	C280.115631,129.251465 281.694733,130.370148 281.811646,131.201828 
	C282.339203,134.955658 284.487640,135.246750 287.559509,134.667328 
	C293.516357,133.543671 294.787201,134.817993 294.213531,141.008347 
	C293.862946,144.791595 296.355194,146.510071 300.921356,145.821213 
	C305.498169,145.130768 310.092865,144.541946 314.694427,144.044754 
	C315.796661,143.925659 317.763580,144.035385 317.968475,144.566360 
	C320.517303,151.171494 326.350555,148.527985 330.712219,148.839584 
	C339.618988,149.475891 341.244598,150.108932 344.350922,158.253128 
	C344.711517,159.198532 344.093933,161.510101 343.570312,161.630997 
	C341.050232,162.212860 337.994843,163.225159 335.881622,162.322922 
	C328.526825,159.182892 321.197296,159.923340 315.081757,165.658081 
z"/>
    <path fill="#151625" opacity="1.000000" stroke="none"
          d="
M128.797791,115.127991 
	C135.854355,115.443153 142.704010,116.149551 149.562988,116.255913 
	C156.515823,116.363731 163.090927,118.736557 170.443436,117.555260 
	C176.999817,116.501869 184.122543,118.914085 190.984879,119.871796 
	C192.451782,120.076523 193.858414,120.681908 195.319275,120.967232 
	C199.169876,121.719307 201.424805,123.886162 202.022430,127.856964 
	C202.671814,132.171509 205.021744,133.421463 208.426971,130.825882 
	C211.323029,128.618393 213.664658,129.262421 216.714035,130.215820 
	C221.077957,131.580246 225.789871,131.814377 230.183258,133.108185 
	C232.986328,133.933655 236.184341,135.203690 237.984100,137.315262 
	C243.360947,143.623688 246.810898,144.459030 254.311127,140.571045 
	C255.774231,139.812607 258.169708,139.870377 259.736572,140.517212 
	C262.294830,141.573334 264.636047,143.278488 266.863007,144.979294 
	C269.080383,146.672791 271.044342,148.698135 273.496765,150.919800 
	C275.395935,149.893768 277.727509,148.985260 279.634521,147.523056 
	C282.634064,145.223145 284.278259,146.464203 285.119324,149.369461 
	C287.067413,156.098953 293.220062,156.674545 299.315033,159.681915 
	C298.686188,162.422424 297.904053,165.831039 297.062164,169.618622 
	C295.901367,170.327774 294.800293,170.657990 292.951080,171.010681 
	C285.467621,171.687561 278.732330,172.341980 271.815613,172.695343 
	C267.550140,170.012558 263.702789,166.967438 259.326111,165.405594 
	C252.865921,163.100204 246.035965,160.604507 239.350403,160.567764 
	C234.509689,160.541153 231.447586,159.884476 229.155762,155.647324 
	C230.864716,151.417023 230.019104,148.696594 225.954071,146.844437 
	C223.584457,145.764786 221.574005,143.867096 219.462570,142.257919 
	C216.670868,140.130310 214.013748,137.553894 210.611755,141.437881 
	C210.270187,141.827820 208.850998,141.800049 208.328049,141.420441 
	C204.647461,138.748657 201.095001,135.901215 197.446594,133.183731 
	C196.292984,132.324463 195.048843,131.476562 193.712341,130.994064 
	C189.966614,129.641846 186.151077,128.483047 181.355667,126.919456 
	C175.969177,128.046860 169.487640,128.712158 163.623062,123.898483 
	C162.825272,123.243660 161.489441,123.109619 160.376038,122.995956 
	C153.340118,122.277695 146.297958,121.619286 139.255081,120.971085 
	C136.404709,120.708748 132.606644,119.245583 130.863037,120.530884 
	C124.710335,125.066345 117.268661,128.362991 113.915833,136.103531 
	C111.324043,142.087097 105.499435,146.636063 105.868866,154.290222 
	C105.492371,155.387634 105.247330,156.194199 105.002289,157.000763 
	C103.902290,157.329178 102.802292,157.657578 101.354202,157.993896 
	C101.004944,156.613312 101.003784,155.224808 101.344193,153.324066 
	C102.123230,151.540863 102.560699,150.269852 102.998169,148.998856 
	C102.998383,148.554672 102.998589,148.110474 103.218056,147.142426 
	C103.624268,146.078796 103.811218,145.539017 103.998169,144.999252 
	C105.702171,137.748764 109.600426,131.915543 116.045776,127.108353 
	C117.783073,125.597115 118.891075,124.298553 119.999084,123.000000 
	C119.999084,123.000000 120.000000,123.000000 120.344856,122.945869 
	C123.126472,120.594696 125.563232,118.297653 128.000000,116.000610 
	C128.142883,115.708122 128.341202,115.459908 128.797791,115.127991 
z"/>
    <path fill="#1E1F2F" opacity="1.000000" stroke="none"
          d="
M144.465729,106.996849 
	C145.870621,105.997948 147.750046,104.129005 149.617233,104.141167 
	C164.579514,104.238625 179.545120,104.542389 194.497421,105.107925 
	C200.600281,105.338753 207.213547,105.073235 212.638428,107.330978 
	C221.877457,111.176071 231.344299,107.794380 240.712952,110.245758 
	C249.824768,112.629944 259.924866,110.931847 269.432037,112.209450 
	C276.698090,113.185883 283.769501,114.641014 291.088379,113.064735 
	C291.982117,112.872253 293.211456,113.101036 293.972260,113.606087 
	C300.591492,118.000244 307.650818,116.125816 314.689880,115.352081 
	C316.764130,115.124069 318.928741,115.625771 321.042206,115.875496 
	C322.826233,116.086273 324.613373,116.336044 326.368225,116.712700 
	C328.957520,117.268478 331.796875,117.457794 334.022400,118.707031 
	C336.778503,120.254105 339.058777,121.929680 342.173157,119.651688 
	C342.889099,119.128044 344.608429,118.753830 344.958374,119.137863 
	C349.343292,123.950172 355.991882,120.660797 360.940643,123.750740 
	C362.857941,124.947861 365.831665,124.307320 368.123718,125.090553 
	C370.462158,125.889648 373.744171,126.887329 374.542084,128.706451 
	C377.501678,135.453766 379.639862,142.564590 382.024323,149.560074 
	C384.269135,156.145782 386.729645,162.679535 388.524292,169.388870 
	C389.577332,173.325790 389.975403,177.576263 389.839508,181.658096 
	C389.666443,186.856750 388.655548,192.027496 388.003540,197.603912 
	C382.183228,195.909683 384.584656,190.861359 384.000031,186.443970 
	C387.398895,181.092239 386.270966,172.380875 381.987030,166.400253 
	C380.156158,163.844284 379.296387,160.604172 377.909119,157.716354 
	C375.703033,153.124008 373.577637,148.477081 371.015625,144.088196 
	C370.621429,143.412918 367.937195,143.592865 366.558289,144.077667 
	C363.960052,144.991150 362.835693,144.107468 360.796936,142.278168 
	C358.143250,139.897034 354.088348,139.042053 350.586731,137.655869 
	C348.740112,136.924866 346.787872,136.460648 343.982574,135.599457 
	C343.019653,136.094986 341.085358,137.090363 337.833649,138.763687 
	C338.629425,135.895370 339.029633,134.452805 339.718811,131.968719 
	C335.847015,131.968719 332.196320,131.950394 328.545929,131.976364 
	C326.688385,131.989578 324.831360,132.082489 322.974121,132.139359 
	C323.308502,130.569138 323.705994,129.008728 323.952057,127.424782 
	C324.085571,126.565430 324.194672,125.005035 323.910645,124.904678 
	C322.935608,124.560188 321.764069,124.579643 320.700104,124.715843 
	C317.751221,125.093330 314.818024,125.963913 311.880188,125.957123 
	C308.661560,125.949699 307.454742,127.394211 306.870392,130.251602 
	C306.680725,131.179062 305.494354,132.617065 304.841583,132.576309 
	C303.724121,132.506531 301.886566,131.624939 301.705719,130.790680 
	C299.693176,121.506348 291.592407,122.279961 285.192474,121.182640 
	C278.598969,120.052124 271.677490,120.909966 265.041473,119.933258 
	C255.963867,118.597176 247.067307,116.059563 238.003143,114.593552 
	C231.732513,113.579361 225.283539,113.717331 218.964844,112.932945 
	C215.061493,112.448402 211.295105,110.892471 207.393188,110.357948 
	C199.644958,109.296501 191.845032,108.613663 184.067657,107.763283 
	C181.937836,107.530403 179.813766,107.053261 177.684601,107.038383 
	C166.768372,106.962151 155.851349,107.000267 144.465729,106.996849 
z"/>
    <path fill="#181A28" opacity="1.000000" stroke="none"
          d="
M347.230194,160.234512 
	C348.759949,157.254471 350.426117,158.379868 351.198578,160.139069 
	C351.687897,161.253494 350.863464,162.944763 350.628265,164.377319 
	C349.479645,163.113220 348.330994,161.849121 347.230194,160.234512 
z"/>
    <path fill="#181A28" opacity="1.000000" stroke="none"
          d="
M127.656235,116.054008 
	C125.563232,118.297653 123.126472,120.594696 120.344856,122.945412 
	C122.437485,120.701859 124.874969,118.404633 127.656235,116.054008 
z"/>
    <path fill="#1E1F2F" opacity="1.000000" stroke="none"
          d="
M131.685699,107.040833 
	C133.390656,107.001724 134.779480,107.001617 136.585052,107.002899 
	C134.576614,108.298706 132.151428,109.593132 129.362213,110.942497 
	C128.999344,110.248756 129.000504,109.500069 129.002350,108.377090 
	C129.791885,107.695137 130.580734,107.387489 131.685699,107.040833 
z"/>
    <path fill="#181A28" opacity="1.000000" stroke="none"
          d="
M119.661522,123.051880 
	C118.891075,124.298553 117.783073,125.597115 116.337311,126.947083 
	C117.107697,125.700241 118.215836,124.402008 119.661522,123.051880 
z"/>
    <path fill="#14192C" opacity="1.000000" stroke="none"
          d="
M102.656601,149.093903 
	C102.560699,150.269852 102.123230,151.540863 101.344513,152.907578 
	C101.440529,151.731842 101.877777,150.460403 102.656601,149.093903 
z"/>
    <path fill="#181A28" opacity="1.000000" stroke="none"
          d="
M349.297180,148.237122 
	C349.809204,148.083267 350.260925,148.185043 350.712646,148.286819 
	C350.510132,148.645554 350.307648,149.004303 350.105133,149.363037 
	C349.815735,149.072952 349.526306,148.782852 349.297180,148.237122 
z"/>
    <path fill="#14192C" opacity="1.000000" stroke="none"
          d="
M103.727539,145.044693 
	C103.811218,145.539017 103.624268,146.078796 103.218102,146.809280 
	C103.151566,146.363373 103.304245,145.726761 103.727539,145.044693 
z"/>
    <path fill="#131831" opacity="1.000000" stroke="none"
          d="
M383.011841,293.626831 
	C382.340790,296.082062 381.681580,298.167786 380.610718,300.625519 
	C379.132721,300.997955 378.066376,300.998352 376.929260,300.685303 
	C375.572754,300.580811 374.286987,300.789795 372.709595,301.169678 
	C371.809814,302.095490 371.241211,302.886719 370.586975,303.599396 
	C366.385132,308.176483 362.074036,309.604614 358.043121,307.493164 
	C361.467163,303.225525 365.347382,299.622131 367.997009,295.269623 
	C373.290741,286.573669 374.366425,276.976410 372.068726,266.694702 
	C371.777344,265.527588 371.450623,264.703949 371.128754,263.586823 
	C370.879486,262.791718 370.625366,262.290070 370.362305,261.765747 
	C370.353333,261.743042 370.326569,261.702240 370.307068,261.418304 
	C370.002594,260.666046 369.717621,260.197693 369.413574,259.714661 
	C369.394531,259.699951 369.370209,259.658386 369.303955,259.380310 
	C368.905945,258.656281 368.574219,258.210327 368.223724,257.754333 
	C368.204956,257.744354 368.196442,257.784851 368.166809,257.524719 
	C368.053436,256.927582 367.969666,256.590515 367.906799,255.869385 
	C367.803741,252.363129 366.020325,251.034409 362.814026,250.924652 
	C362.361389,250.623993 362.152832,250.378326 361.946594,249.755402 
	C360.689117,245.307159 358.218811,243.527954 353.660553,245.105255 
	C352.884857,244.772232 352.398865,244.487152 351.851807,243.848389 
	C350.166473,242.252991 348.676819,240.239883 346.890259,239.928101 
	C343.022614,239.253128 339.213043,236.370667 335.050537,238.983276 
	C335.033325,239.005951 335.019745,238.950684 334.855469,238.639481 
	C332.977142,235.833374 331.179108,234.397324 328.597839,237.912384 
	C326.146393,237.480728 324.088409,237.012955 321.918884,236.240646 
	C318.879791,234.561005 315.949341,233.191925 313.025299,231.809296 
	C309.202454,230.001663 304.488037,229.343628 303.381226,224.042313 
	C303.277832,223.547134 301.772644,223.344650 300.830688,222.679810 
	C300.739716,221.904800 300.736420,221.456223 300.860229,220.763062 
	C301.060822,220.350082 301.134308,220.181686 301.585236,219.985641 
	C302.846191,218.054382 303.729736,216.150757 304.767212,214.045578 
	C305.189209,213.655197 305.457306,213.466370 305.865601,213.616333 
	C306.609070,214.440872 307.540619,215.470383 307.767700,215.333252 
	C314.490265,211.274124 321.751099,211.725784 329.117493,212.425766 
	C330.357697,212.543640 331.710144,211.479858 333.267822,210.923950 
	C333.696960,210.865173 333.869019,210.844482 334.280548,211.015350 
	C335.004486,211.581406 335.488892,211.955887 335.988464,212.682510 
	C336.402283,214.409332 336.832489,215.775772 337.192993,217.160385 
	C337.921234,219.957565 339.414307,219.147720 341.256592,218.123535 
	C342.578979,222.025482 344.638672,224.509247 349.456177,224.114777 
	C356.053772,224.229706 362.195038,224.180389 368.334564,224.261444 
	C370.654266,224.292053 372.292786,223.886887 372.145447,220.963867 
	C373.647827,219.581985 374.818817,218.274384 375.989807,216.966797 
	C375.788574,218.439224 375.213531,219.986465 375.489105,221.363449 
	C375.776215,222.797836 376.973053,225.268066 377.619019,225.220169 
	C382.827271,224.833954 383.254852,228.861008 384.600739,232.128906 
	C387.167908,238.362259 389.822601,244.560516 392.301788,250.828369 
	C392.831512,252.167542 393.075562,253.772507 392.930298,255.202118 
	C391.518402,269.096313 394.963928,282.433563 397.444550,295.883606 
	C397.954865,298.650299 398.458221,301.418274 398.981750,304.592834 
	C395.891205,300.687653 392.855743,296.320221 389.629425,292.098602 
	C388.735138,290.928406 387.274323,290.191223 386.073425,289.255341 
	C385.056854,290.589325 384.040283,291.923309 383.011841,293.626831 
z"/>
    <path fill="#111732" opacity="1.000000" stroke="none"
          d="
M271.997009,172.996399 
	C278.732330,172.341980 285.467621,171.687561 292.602356,171.019318 
	C287.922607,174.097702 284.692200,180.553482 277.098480,179.115723 
	C274.179749,178.563110 270.552216,178.147186 268.676941,182.637070 
	C265.401398,182.006866 262.602203,180.260132 259.750092,180.169006 
	C253.849945,179.980499 247.921646,180.673096 241.579605,181.000305 
	C239.826462,180.929382 238.277725,181.283646 237.207458,180.723587 
	C231.270157,177.616592 225.638275,178.834366 219.995316,181.461334 
	C216.513046,183.082428 213.109177,183.526688 209.513092,181.389450 
	C208.289856,180.662460 206.409470,181.004242 204.825958,180.930328 
	C203.080002,180.848831 201.317139,180.974823 199.584457,180.792953 
	C194.700897,180.280334 189.776596,178.954269 184.970322,179.313416 
	C181.550552,179.568909 178.295944,182.034760 174.578156,183.659485 
	C172.809464,183.920731 171.430222,184.036636 169.892563,183.936676 
	C169.153732,184.090714 168.573334,184.460617 167.642487,184.964294 
	C152.410110,189.324509 141.783173,198.358521 136.653152,213.098206 
	C135.039459,217.734711 133.852890,222.781525 133.798462,227.655350 
	C133.510742,253.417480 133.646744,279.184357 133.487808,305.361633 
	C133.230896,307.514648 133.121994,309.255646 132.671631,310.909912 
	C131.235321,308.648804 129.891235,306.560822 129.100479,304.280945 
	C127.698647,300.239288 127.410355,295.612854 125.273094,292.064026 
	C119.962914,283.246643 121.859138,274.064972 122.866714,264.939240 
	C123.969841,254.948151 125.589882,245.012161 127.080948,235.066589 
	C127.963837,229.177658 128.726349,223.244110 130.094757,217.461166 
	C131.867935,209.967606 135.352142,203.171204 139.999863,197.001221 
	C140.000000,197.000000 140.002396,196.999084 140.206360,196.873749 
	C140.665756,196.546387 140.862228,196.297775 141.053238,195.659668 
	C143.406113,192.210724 145.705505,189.104645 148.357101,185.942383 
	C150.628098,184.927505 152.491562,183.831467 154.474716,183.032547 
	C166.848221,178.047897 179.000916,172.611176 192.778839,172.134109 
	C203.324387,171.768967 213.827637,169.355270 224.349670,169.355377 
	C236.374084,169.355515 248.399277,171.008987 260.422363,171.966110 
	C264.283478,172.273483 268.138947,172.650970 271.997009,172.996399 
z"/>
    <path fill="#232945" opacity="1.000000" stroke="none"
          d="
M242.004913,181.003326 
	C247.921646,180.673096 253.849945,179.980499 259.750092,180.169006 
	C262.602203,180.260132 265.401398,182.006866 268.614716,183.006393 
	C272.181213,182.942429 275.276886,182.668564 277.019257,186.472809 
	C277.375580,187.250763 280.255554,187.524094 281.654999,187.064392 
	C289.132111,184.608307 296.357513,181.241516 303.957886,179.341278 
	C313.588562,176.933426 323.488892,176.628128 333.333771,178.915970 
	C335.689575,179.463409 338.328583,179.020065 340.562347,179.810043 
	C343.702209,180.920441 346.598663,182.731812 349.566040,184.306000 
	C350.125122,184.602570 350.503296,185.556732 351.008148,185.592148 
	C361.045349,186.296066 363.389313,195.753525 368.630798,201.618546 
	C372.125793,205.529312 373.604126,211.242355 375.987427,216.557770 
	C374.818817,218.274384 373.647827,219.581985 371.925171,220.658569 
	C370.305481,216.599579 369.237427,212.771622 368.145813,208.584991 
	C366.468475,205.800400 364.814667,203.374481 363.105286,200.729675 
	C363.067200,200.191772 362.975281,199.908142 362.783386,199.692474 
	C362.792786,199.725037 362.843170,199.677704 362.747131,199.332062 
	C359.940704,196.571213 357.230316,194.156006 354.299744,191.454895 
	C348.388885,189.084732 342.698212,187.000458 336.579071,184.873230 
	C334.266815,184.472397 332.388123,183.845764 330.498230,183.809875 
	C325.864685,183.721939 321.222626,184.054459 316.590088,183.949295 
	C308.032837,183.755020 300.395721,186.383041 293.007538,191.106049 
	C289.895508,193.553497 287.125122,195.936035 284.403625,198.276489 
	C281.670532,195.950821 278.951996,193.217407 275.834106,191.061523 
	C265.603638,183.987686 254.024216,182.673370 241.981964,183.329620 
	C241.988663,182.332565 241.996796,181.667953 242.004913,181.003326 
z"/>
    <path fill="#282B43" opacity="1.000000" stroke="none"
          d="
M327.057983,99.355484 
	C330.575714,99.035606 334.154572,99.083649 337.733521,99.093254 
	C342.486298,99.106010 347.326508,98.134705 351.577484,101.591873 
	C352.845520,102.623146 355.084961,102.361946 356.698730,103.092110 
	C358.529083,103.920288 360.156708,105.196587 361.936188,106.636749 
	C357.118500,105.423500 352.328491,103.360382 347.327728,102.429916 
	C343.073853,101.638397 338.515076,101.679855 334.208527,102.245697 
	C331.068665,102.658241 328.656281,102.931000 327.057983,99.355484 
z"/>

</svg>